<?xml version="1.0" standalone="no"?>
<!DOCTYPE svg PUBLIC "-//W3C//DTD SVG 20010904//EN"
 "http://www.w3.org/TR/2001/REC-SVG-20010904/DTD/svg10.dtd">
<svg version="1.0" xmlns="http://www.w3.org/2000/svg"
 width="371.000000pt" height="371.000000pt" viewBox="0 0 371.000000 371.000000"
 preserveAspectRatio="xMidYMid meet">
<metadata>
Created by potrace 1.14, written by Peter Selinger 2001-2017
</metadata>
<g transform="translate(0.000000,371.000000) scale(0.100000,-0.100000)"
fill="#000000" stroke="none">
<path d="M1797 3522 c-43 -44 -50 -67 -9 -31 l27 24 -24 -27 c-13 -15 -28 -26
-33 -25 -5 1 -39 -30 -76 -69 l-67 -71 -440 -68 -440 -68 -335 2 c-184 1 -350
4 -367 8 -26 4 -33 2 -33 -11 0 -14 31 -16 293 -17 160 0 288 -2 282 -4 -18
-7 -522 -85 -549 -85 -25 0 -26 -3 -26 -50 0 -48 1 -50 28 -50 15 -1 38 -7 51
-14 24 -13 23 -14 -27 -21 -52 -7 -72 -25 -29 -25 12 0 29 -5 37 -11 11 -7 5
-8 -23 -3 -37 6 -37 6 -37 -29 0 -30 4 -37 30 -46 17 -5 30 -12 30 -14 0 -2
-13 -2 -30 1 l-30 4 0 -130 c0 -116 2 -131 17 -135 17 -4 17 -5 1 -6 -14 -1
-18 -10 -18 -45 0 -26 5 -46 13 -49 9 -4 9 -6 0 -6 -8 -1 -13 -14 -13 -31 0
-24 5 -31 27 -36 16 -3 37 -9 48 -12 11 -3 26 -5 33 -4 6 2 19 -1 27 -6 11 -5
-9 -12 -60 -21 -41 -7 -75 -17 -75 -22 0 -11 -13 -12 108 11 83 16 114 17 155
9 110 -21 108 -19 37 -46 -117 -45 -144 -56 -185 -73 -22 -9 -51 -20 -65 -23
-32 -9 -56 -24 -48 -32 3 -3 34 5 68 19 34 14 66 23 71 20 5 -3 9 -1 9 4 0 5
57 31 126 57 l126 47 91 -18 c50 -9 109 -23 131 -31 40 -13 40 -13 6 -8 -35 5
-35 4 -10 -10 28 -16 96 -20 104 -6 6 10 43 3 50 -8 3 -4 -7 -7 -22 -6 -56 1
-58 -33 -2 -36 17 -1 19 -3 8 -6 -32 -8 -19 -23 20 -23 24 0 32 -3 24 -9 -9
-5 8 -9 45 -10 41 0 54 2 43 9 -12 8 -10 10 10 11 42 3 75 -2 78 -12 2 -5 13
-9 23 -9 11 0 17 -4 14 -10 -9 -14 8 -13 23 2 9 9 15 9 24 -1 7 -7 9 -12 3
-11 -35 7 -22 -4 25 -21 l55 -19 -60 6 c-33 3 -72 6 -87 5 -30 0 -40 18 -10
20 10 0 4 6 -15 15 -23 10 -51 12 -93 7 -54 -5 -58 -7 -37 -18 31 -16 89 -27
82 -15 -3 5 4 8 15 7 19 -1 24 -9 21 -34 -1 -7 4 -13 12 -13 7 0 19 6 27 13
12 10 12 9 1 -5 -7 -9 -20 -19 -29 -21 -9 -2 -5 -3 10 -1 16 2 27 -1 25 -7 -1
-6 15 -17 36 -25 40 -14 51 -10 15 7 -22 9 -22 9 2 3 14 -3 51 -12 83 -19 33
-8 62 -17 65 -20 4 -4 -4 -5 -18 -1 -24 6 -24 6 3 -9 15 -9 32 -13 37 -10 5 3
11 2 14 -3 2 -4 17 -7 33 -6 15 1 37 3 47 3 37 2 2 20 -43 23 l-44 3 27 15
c22 11 29 12 35 1 5 -8 17 -11 29 -7 11 4 23 3 26 -2 3 -5 25 -9 48 -9 41 0
42 0 14 10 -19 6 -24 12 -16 17 7 5 -6 9 -33 11 -25 2 -43 1 -40 -3 2 -5 -1
-8 -6 -8 -6 0 -11 5 -11 11 0 8 -13 9 -42 4 -69 -12 -128 -14 -122 -4 3 5 11
9 17 8 7 -1 32 7 57 19 43 19 69 26 99 23 10 -1 11 -4 2 -15 -10 -12 -4 -16
36 -22 52 -7 91 -23 63 -24 -14 -1 24 -22 45 -24 22 -3 85 -31 85 -38 0 -4
-12 -8 -27 -8 -31 0 -23 -13 12 -17 14 -2 25 2 27 11 2 12 13 9 56 -11 55 -28
63 -38 35 -46 -10 -3 3 -5 29 -4 26 0 51 -2 54 -6 4 -4 -17 -7 -46 -7 -29 0
-50 -3 -47 -7 4 -3 37 -6 75 -5 59 1 63 0 33 -9 -18 -6 -31 -12 -29 -15 3 -2
43 -6 89 -8 46 -2 97 -8 113 -12 21 -5 27 -4 22 5 -5 7 1 11 16 12 14 1 6 6
-22 14 -43 12 -44 13 -21 22 18 7 41 5 84 -9 33 -10 62 -16 65 -13 3 3 -1 5
-9 5 -8 1 -3 7 10 14 21 12 21 14 6 20 -10 3 -20 4 -23 1 -3 -3 1 -5 9 -5 11
0 11 -2 -1 -10 -8 -5 -24 -9 -35 -9 l-20 0 20 9 c15 7 10 9 -24 9 -24 1 -42 3
-40 5 12 12 88 15 152 6 48 -7 79 -7 92 -1 11 6 36 15 55 20 19 5 28 10 20 10
-9 1 -39 -5 -67 -12 -41 -11 -67 -11 -120 -3 l-68 11 47 18 c26 10 49 17 50
15 2 -1 13 4 25 13 17 12 35 14 80 8 32 -4 72 -7 88 -7 29 0 29 0 5 8 -22 7
-21 8 13 9 23 1 40 7 43 16 4 8 10 15 16 15 5 0 6 -6 2 -12 -5 -8 -1 -7 10 2
17 13 17 14 -1 21 -10 4 -36 8 -58 9 l-40 2 32 9 c26 8 41 5 74 -11 23 -12 38
-17 34 -11 -8 14 -3 14 29 1 17 -6 35 -6 53 1 42 16 16 28 -70 33 -43 2 -81 7
-84 10 -6 5 36 10 89 10 9 0 15 3 12 7 -6 10 56 -10 73 -23 7 -6 19 -5 32 1
11 6 28 11 39 11 11 0 31 9 45 20 15 12 40 20 64 20 28 0 34 3 23 10 -13 8
-12 10 5 11 11 1 30 0 43 -1 12 -1 22 3 22 7 0 5 -24 9 -54 8 -30 0 -53 2 -50
6 4 8 -30 18 -66 20 -22 1 -21 2 8 10 24 7 38 7 48 -2 16 -13 91 -15 159 -5
22 3 46 6 53 7 28 5 -2 13 -59 16 -33 1 -67 6 -75 11 -9 5 12 6 48 4 57 -4 62
-3 49 12 -8 9 -9 16 -3 16 6 0 14 -4 17 -10 3 -5 11 -10 16 -10 6 0 8 4 5 9
-3 5 33 16 82 24 122 22 209 26 198 9 -2 -4 10 -8 27 -8 18 0 41 -4 52 -9 11
-4 25 -9 30 -11 6 -1 69 -19 140 -39 72 -20 155 -43 185 -51 30 -8 57 -19 58
-25 5 -13 22 -1 22 16 0 7 -10 17 -21 20 -17 6 -19 9 -8 17 10 7 9 8 -6 4 -13
-3 -40 7 -75 29 -30 19 -47 35 -38 35 30 0 122 -22 136 -32 8 -8 12 -6 12 6 0
8 -15 22 -32 29 -39 17 -111 62 -84 53 11 -4 35 -9 55 -12 20 -3 42 -7 49 -9
6 -2 12 0 12 5 0 5 -8 11 -17 13 -17 4 -17 5 0 6 16 1 17 20 17 249 l0 249
-32 -4 -33 -3 33 10 c29 10 32 14 32 50 0 31 -4 40 -17 40 -17 1 -17 1 0 11
11 6 17 22 17 44 0 31 -3 34 -32 38 l-33 4 33 1 c17 1 32 6 32 11 0 16 -43 21
-190 22 -218 2 -219 7 -13 58 165 41 228 60 195 61 -7 0 -102 -22 -210 -50
l-197 -49 -70 16 -70 16 185 33 c102 18 227 40 278 49 50 9 92 20 92 24 0 4
-134 -16 -297 -45 l-298 -52 -208 46 c-144 32 -201 49 -185 53 13 4 239 12
503 19 264 6 482 13 484 16 2 2 2 5 0 7 -2 2 -254 -3 -559 -11 l-555 -15 -275
62 c-151 34 -282 64 -291 67 -9 2 -53 54 -98 115 -45 60 -86 107 -91 104 -6
-3 -7 1 -4 9 9 24 2 20 -39 -22z m107 -102 c36 -46 63 -86 62 -88 -2 -1 -33 4
-68 12 -52 12 -79 13 -132 5 -37 -6 -70 -9 -72 -6 -3 3 9 21 25 40 49 55 35
57 -17 2 -26 -28 -40 -41 -32 -30 30 41 73 84 81 79 4 -2 22 14 40 36 18 22
36 39 41 38 4 -2 37 -41 72 -88z m16 -96 c65 -14 71 -18 110 -70 23 -31 40
-58 37 -60 -10 -11 -117 21 -173 51 l-61 33 -109 -24 c-141 -30 -144 -30 -109
6 16 16 26 32 23 35 -3 3 -21 -12 -40 -35 -19 -22 -38 -40 -42 -40 -5 0 6 16
23 35 47 54 37 56 -14 3 -37 -38 -56 -49 -98 -58 -99 -20 -202 -25 -427 -20
l-225 5 375 59 c206 32 393 60 415 61 22 2 47 5 55 8 24 10 112 25 153 26 21
0 69 -6 107 -15z m377 -84 c133 -30 241 -55 240 -57 -1 -1 -94 -3 -205 -4
-227 -2 -212 -6 -272 78 -19 26 -27 44 -19 41 8 -2 123 -29 256 -58z m-509 4
c-14 -14 -164 -41 -174 -31 -2 2 37 13 88 24 51 11 95 21 98 22 2 0 -3 -6 -12
-15z m66 1 c19 -14 17 -15 -18 -15 -33 0 -37 2 -26 15 15 18 20 18 44 0z m20
-35 c21 -4 46 -15 54 -24 14 -14 -4 -15 -186 -15 -196 0 -253 10 -135 23 32 4
78 10 103 13 41 5 44 5 31 -10 -19 -23 -5 -21 26 3 28 22 49 24 107 10z m106
-36 c0 -2 -9 0 -20 6 -11 6 -20 13 -20 16 0 2 9 0 20 -6 11 -6 20 -13 20 -16z
m61 -2 c-13 -2 -27 0 -32 5 -6 6 3 7 23 4 28 -4 29 -6 9 -9z m-563 1 c-10 -2
-26 -2 -35 0 -10 3 -2 5 17 5 19 0 27 -2 18 -5z m1362 -55 l235 -53 -65 -12
c-102 -19 -127 -17 -454 44 -343 64 -346 67 -71 71 111 2 137 -2 355 -50z
m-1755 36 c-11 -2 -217 -24 -458 -50 -323 -34 -449 -44 -480 -38 -37 8 -12 14
218 50 252 40 267 42 500 41 132 0 231 -1 220 -3z m370 -3 c3 -5 -5 -21 -17
-35 -22 -25 -33 -27 -208 -45 -424 -45 -465 -34 -138 36 233 49 350 64 363 44z
m610 -22 c30 -17 55 -32 55 -34 0 -12 -83 22 -101 41 -30 32 -20 30 46 -7z
m58 6 c23 -31 13 -31 -38 0 l-40 24 30 0 c20 0 36 -8 48 -24z m344 -36 c155
-29 281 -54 280 -55 -1 -1 -115 4 -252 12 -138 7 -258 14 -268 14 -18 0 -61
40 -79 74 -9 16 -7 18 13 13 13 -3 151 -29 306 -58z m-1477 0 l-225 -48 -235
2 -235 2 425 46 c234 26 441 47 460 47 19 0 -66 -22 -190 -49z m488 21 c-12
-16 -26 -30 -30 -30 -10 0 -2 16 20 43 25 29 34 19 10 -13z m187 11 c-15 -14
-42 -21 -105 -26 l-85 -7 24 26 c23 24 31 26 105 26 79 0 80 0 61 -19z m160 8
c-16 -5 -57 -12 -90 -15 -55 -7 -59 -6 -46 9 10 13 30 17 90 16 61 -1 70 -2
46 -10z m171 -4 c18 -14 17 -15 -11 -9 -16 4 -41 11 -55 15 -22 6 -21 7 11 8
19 1 44 -6 55 -14z m-109 -1 c-3 -3 -12 -4 -19 -1 -8 3 -5 6 6 6 11 1 17 -2
13 -5z m-41 -26 c4 -7 3 -8 -5 -4 -6 4 -20 2 -29 -6 -15 -12 -16 -11 -3 5 16
20 27 22 37 5z m-72 -8 c-6 -6 -35 -13 -65 -15 l-54 -4 55 13 c71 18 76 18 64
6z m201 -9 l40 -9 -40 -1 c-22 0 -51 6 -65 14 l-25 15 25 -5 c14 -3 43 -9 65
-14z m-440 -12 c-51 -10 -92 -10 -50 1 17 4 44 8 60 8 25 0 24 -2 -10 -9z
m326 -16 c16 -10 29 -21 29 -26 0 -4 -13 0 -29 9 -28 16 -31 16 -55 0 -32 -20
-35 -3 -4 18 27 19 24 20 59 -1z m-142 -9 c-12 -11 -31 -14 -75 -12 -54 3 -57
4 -34 15 14 6 47 12 75 12 45 1 48 0 34 -15z m51 1 c-7 -8 -17 -15 -22 -15 -6
0 -5 7 2 15 7 8 17 15 22 15 6 0 5 -7 -2 -15z m154 -14 c-2 -3 -12 3 -22 13
-16 17 -16 18 5 5 12 -7 20 -15 17 -18z m186 3 c24 -23 -77 -18 -120 7 l-35
20 70 -6 c39 -4 76 -13 85 -21z m-2017 9 c-13 -2 -33 -2 -45 0 -13 2 -3 4 22
4 25 0 35 -2 23 -4z m1482 -3 c-3 -5 -27 -10 -53 -9 -38 1 -42 2 -22 9 37 12
82 12 75 0z m405 -18 c-7 -3 -19 3 -28 13 -16 15 -15 16 12 4 15 -7 23 -15 16
-17z m214 8 c17 -17 -38 -11 -60 6 -18 15 -17 15 16 10 19 -4 39 -11 44 -16z
m1016 -6 l45 -12 -80 -1 c-44 0 -105 2 -135 6 l-55 7 60 11 c62 12 88 10 165
-11z m-1877 9 c-18 -2 -48 -2 -65 0 -18 2 -4 4 32 4 36 0 50 -2 33 -4z m1456
-19 c9 -8 -265 -2 -309 6 -28 5 21 7 130 3 96 -3 177 -7 179 -9z m-2699 -4
c21 -7 19 -8 -17 -9 -23 -1 -45 4 -48 9 -7 12 29 12 65 0z m270 0 c16 -5 -11
-8 -75 -8 -55 0 -111 4 -125 8 -16 5 11 8 75 8 55 0 111 -4 125 -8z m343 -7
c-7 -2 -19 -2 -25 0 -7 3 -2 5 12 5 14 0 19 -2 13 -5z m387 -4 l65 -1 -90 -19
c-105 -21 -166 -22 -290 -5 l-90 12 80 8 c44 4 85 9 90 12 6 2 46 2 90 -1 44
-3 109 -5 145 -6z m927 5 c-3 -3 -12 -4 -19 -1 -8 3 -5 6 6 6 11 1 17 -2 13
-5z m146 -13 c12 -12 -72 -2 -93 11 -10 6 2 7 35 4 27 -4 53 -10 58 -15z
m-1663 -1 c0 -6 -26 -9 -62 -8 -62 1 -63 1 -18 8 69 11 80 11 80 0z m820 -15
c-22 -23 -30 -25 -109 -24 l-86 1 95 23 c124 30 129 30 100 0z m43 0 c-10 -13
-24 -25 -32 -25 -10 0 -7 8 9 25 30 32 46 32 23 0z m146 10 c-8 -8 -43 -18
-79 -21 l-65 -7 19 22 c16 17 30 21 80 21 53 0 59 -2 45 -15z m86 6 c15 -6 8
-9 -28 -12 -40 -4 -45 -2 -30 8 19 15 29 15 58 4z m630 -1 c3 -5 -1 -10 -9
-10 -8 0 -18 5 -21 10 -3 6 1 10 9 10 8 0 18 -4 21 -10z m75 -5 l25 -14 -26
-1 c-15 0 -32 7 -39 15 -17 20 5 20 40 0z m180 -9 l45 -16 -80 4 c-53 2 -90 8
-110 20 l-30 17 65 -5 c36 -2 85 -11 110 -20z m47 18 c-3 -3 -12 -4 -19 -1 -8
3 -5 6 6 6 11 1 17 -2 13 -5z m176 -1 c-13 -2 -35 -2 -50 0 -16 2 -5 4 22 4
28 0 40 -2 28 -4z m-120 -10 c-7 -2 -19 -2 -25 0 -7 3 -2 5 12 5 14 0 19 -2
13 -5z m450 1 c67 -12 39 -23 -65 -26 -116 -3 -238 10 -217 23 16 10 226 12
282 3z m110 -1 c-7 -2 -21 -2 -30 0 -10 3 -4 5 12 5 17 0 24 -2 18 -5z m286
-9 c2 -2 -56 -4 -130 -3 -89 1 -126 4 -109 10 24 8 230 2 239 -7z m-3154 -4
c28 -7 29 -8 5 -10 -14 -1 -52 -5 -85 -9 -44 -6 -67 -5 -87 6 -16 7 -28 16
-28 18 0 8 162 3 195 -5z m358 3 c-7 -2 -21 -2 -30 0 -10 3 -4 5 12 5 17 0 24
-2 18 -5z m514 1 c-3 -3 -12 -4 -19 -1 -8 3 -5 6 6 6 11 1 17 -2 13 -5z m-44
-11 c-7 -2 -19 -2 -25 0 -7 3 -2 5 12 5 14 0 19 -2 13 -5z m820 0 c-7 -2 -19
-2 -25 0 -7 3 -2 5 12 5 14 0 19 -2 13 -5z m812 -2 c34 -7 35 -9 10 -9 -16 0
-43 4 -60 8 -42 11 -1 11 50 1z m-1955 -10 c91 -6 93 -7 47 -15 -63 -11 -345
-2 -377 12 -29 13 170 14 330 3z m277 3 c-3 -3 -12 -4 -19 -1 -8 3 -5 6 6 6
11 1 17 -2 13 -5z m709 -9 c-11 -8 -29 -15 -40 -15 -20 0 -20 0 0 15 10 8 28
14 39 14 20 0 20 0 1 -14z m444 5 l25 -8 -25 0 c-14 0 -34 3 -45 8 l-20 9 20
-1 c11 0 31 -4 45 -8z m1243 3 c-29 -2 -78 -2 -110 0 -32 2 -8 3 52 3 61 0 87
-1 58 -3z m-1893 -13 c-14 -4 -38 -8 -55 -8 l-30 0 30 8 c17 4 41 8 55 8 l25
0 -25 -8z m409 -6 c10 -9 -56 -3 -69 7 -11 7 -4 8 25 3 22 -4 42 -8 44 -10z
m-1716 -1 c-7 -2 -21 -2 -30 0 -10 3 -4 5 12 5 17 0 24 -2 18 -5z m165 0 c-16
-2 -40 -2 -55 0 -16 2 -3 4 27 4 30 0 43 -2 28 -4z m535 0 c-7 -2 -21 -2 -30
0 -10 3 -4 5 12 5 17 0 24 -2 18 -5z m694 1 c-3 -3 -12 -4 -19 -1 -8 3 -5 6 6
6 11 1 17 -2 13 -5z m476 -1 c-7 -2 -21 -2 -30 0 -10 3 -4 5 12 5 17 0 24 -2
18 -5z m1182 -2 c25 -6 18 -9 -47 -20 -64 -10 -92 -10 -155 1 l-78 13 75 6
c105 8 170 8 205 0z m82 3 c-3 -3 -12 -4 -19 -1 -8 3 -5 6 6 6 11 1 17 -2 13
-5z m143 -8 c-30 -7 -66 -10 -80 -7 -25 5 -24 5 5 12 17 4 53 7 80 7 l50 0
-55 -12z m-857 -3 c-7 -2 -19 -2 -25 0 -7 3 -2 5 12 5 14 0 19 -2 13 -5z m230
0 c-7 -2 -19 -2 -25 0 -7 3 -2 5 12 5 14 0 19 -2 13 -5z m740 0 c-7 -2 -19 -2
-25 0 -7 3 -2 5 12 5 14 0 19 -2 13 -5z m-3510 -13 c-14 -6 -32 -6 -45 0 -19
7 -15 9 22 9 37 0 41 -2 23 -9z m327 0 c-106 -10 -271 -10 -240 0 14 4 90 8
170 7 123 0 134 -1 70 -7z m569 6 c-2 -2 -29 -6 -59 -9 -36 -4 -46 -3 -30 3
25 8 97 13 89 6z m376 -6 c-45 -11 -87 -11 -80 0 3 6 30 9 58 9 45 -1 48 -2
22 -9z m143 -2 c-7 -22 -53 -32 -90 -21 l-33 10 45 10 c63 15 82 15 78 1z
m869 6 c-3 -3 -12 -4 -19 -1 -8 3 -5 6 6 6 11 1 17 -2 13 -5z m263 -7 l115
-13 -45 -11 c-37 -10 -68 -9 -167 6 -68 10 -126 21 -130 24 -10 10 98 7 227
-6z m740 2 c24 -3 -91 -17 -135 -17 -36 0 -35 1 20 13 33 7 69 11 80 9 11 -2
27 -4 35 -5z m-2618 -13 c-29 -7 -65 -11 -80 -8 l-27 6 30 7 c17 4 53 7 80 7
l50 0 -53 -12z m803 -6 c-17 -19 -45 -27 -45 -14 0 11 34 33 49 34 11 0 10 -5
-4 -20z m95 5 c-7 -8 -24 -15 -38 -15 -25 0 -25 1 -6 15 10 8 27 15 38 15 15
0 16 -3 6 -15z m330 0 c21 -25 6 -27 -41 -6 l-44 20 36 0 c21 1 42 -5 49 -14z
m125 5 c3 -5 -3 -10 -14 -10 -11 0 -23 5 -26 10 -3 6 3 10 14 10 11 0 23 -4
26 -10z m-1620 -21 c-49 -10 -115 -18 -145 -18 -53 0 -150 14 -140 19 7 4 235
16 310 17 l65 1 -90 -19z m492 15 c-3 -3 -12 -4 -19 -1 -8 3 -5 6 6 6 11 1 17
-2 13 -5z m213 -8 c-34 -31 -253 -56 -335 -37 -23 6 -3 11 90 25 66 10 125 19
130 21 6 2 37 4 70 4 51 1 57 -1 45 -13z m716 -14 c-4 -3 -14 2 -24 12 -16 18
-16 18 6 6 13 -6 21 -14 18 -18z m-1258 7 c25 -2 -148 -28 -183 -27 -16 0 8 8
55 18 47 10 91 16 98 14 8 -2 21 -5 30 -5z m255 4 c-7 -2 -19 -2 -25 0 -7 3
-2 5 12 5 14 0 19 -2 13 -5z m1335 -17 c27 -14 55 -32 63 -42 13 -16 10 -17
-51 -10 -42 5 -81 17 -110 34 -44 25 -44 26 -20 33 45 13 70 9 118 -15z m105
17 c-7 -2 -19 -2 -25 0 -7 3 -2 5 12 5 14 0 19 -2 13 -5z m507 -13 c48 -14 -6
-23 -78 -13 -67 9 -67 9 -32 20 33 10 53 9 110 -7z m203 13 c-7 -2 -19 -2 -25
0 -7 3 -2 5 12 5 14 0 19 -2 13 -5z m419 -4 c-21 -6 -49 -6 -75 -1 -39 9 -37
10 33 10 64 0 70 -1 42 -9z m-2639 -6 c-7 -2 -21 -2 -30 0 -10 3 -4 5 12 5 17
0 24 -2 18 -5z m502 -2 c-6 -5 -32 -11 -58 -13 -40 -3 -45 -1 -30 9 19 15 102
18 88 4z m60 -1 c17 -7 14 -9 -13 -9 -20 -1 -31 3 -27 9 7 12 13 12 40 0z
m1002 4 c-3 -3 -12 -4 -19 -1 -8 3 -5 6 6 6 11 1 17 -2 13 -5z m201 -9 c12
-10 -21 -10 -68 1 l-55 13 60 -6 c33 -3 61 -7 63 -8z m340 8 c-10 -2 -26 -2
-35 0 -10 3 -2 5 17 5 19 0 27 -2 18 -5z m-1723 -13 c-3 -5 -14 -10 -23 -10
-15 0 -15 2 -2 10 20 13 33 13 25 0z m1235 -14 l65 -12 -67 -13 -67 -13 -43
32 -43 31 45 -6 c25 -4 74 -12 110 -19z m-3 18 c-3 -3 -12 -4 -19 -1 -8 3 -5
6 6 6 11 1 17 -2 13 -5z m1146 -1 c-13 -2 -33 -2 -45 0 -13 2 -3 4 22 4 25 0
35 -2 23 -4z m-2895 -10 c-10 -2 -26 -2 -35 0 -10 3 -2 5 17 5 19 0 27 -2 18
-5z m802 -8 c-7 -8 -20 -15 -29 -15 -13 1 -13 3 3 15 26 19 42 19 26 0z m555
5 c3 -6 -1 -7 -9 -4 -18 7 -21 14 -7 14 6 0 13 -4 16 -10z m674 -6 c2 -2 -20
-4 -50 -4 -36 0 -49 3 -40 9 13 8 79 4 90 -5z m366 6 c-3 -5 -24 -10 -46 -10
-21 0 -39 5 -39 10 0 6 21 10 46 10 27 0 43 -4 39 -10z m-2462 -7 c-7 -2 -19
-2 -25 0 -7 3 -2 5 12 5 14 0 19 -2 13 -5z m165 0 c-10 -2 -28 -2 -40 0 -13 2
-5 4 17 4 22 1 32 -1 23 -4z m617 -3 c-3 -5 -26 -10 -51 -10 -28 0 -43 4 -39
10 3 6 26 10 51 10 28 0 43 -4 39 -10z m160 0 c-3 -5 -13 -10 -21 -10 -8 0
-12 5 -9 10 3 6 13 10 21 10 8 0 12 -4 9 -10z m1395 0 c22 -7 21 -8 -12 -9
-21 -1 -38 4 -38 9 0 11 14 11 50 0z m645 0 c14 -6 3 -9 -40 -9 -33 0 -67 4
-75 9 -19 12 86 12 115 0z m-2342 -7 c-13 -2 -33 -2 -45 0 -13 2 -3 4 22 4 25
0 35 -2 23 -4z m757 -3 c13 -9 13 -10 0 -9 -8 0 -24 4 -35 9 l-20 9 20 0 c11
0 27 -4 35 -9z m1123 3 c-7 -2 -21 -2 -30 0 -10 3 -4 5 12 5 17 0 24 -2 18 -5z
m-3068 -13 c19 -7 19 -8 2 -15 -11 -5 -32 -1 -50 8 l-32 16 30 0 c17 0 39 -4
50 -9z m2830 1 c29 -7 29 -7 -12 -14 -52 -9 -131 2 -111 14 15 10 79 10 123 0z
m306 -7 c-25 -8 -55 -11 -70 -7 -25 7 -25 8 9 14 19 3 51 7 70 7 l35 0 -44
-14z m167 9 c-10 -2 -26 -2 -35 0 -10 3 -2 5 17 5 19 0 27 -2 18 -5z m-2263
-12 c-6 -4 -35 -5 -65 -1 l-55 7 65 2 c36 0 60 -3 55 -8z m50 -1 c-3 -5 -13
-10 -21 -10 -8 0 -12 5 -9 10 3 6 13 10 21 10 8 0 12 -4 9 -10z m86 -3 c-6 -8
-23 -12 -41 -9 -40 6 -28 22 17 22 28 0 33 -3 24 -13z m113 -2 c-10 -8 -39
-15 -63 -15 -37 0 -42 2 -31 15 8 10 30 15 63 15 47 0 49 -1 31 -15z m96 10
c0 -5 -56 -35 -66 -35 -3 0 -1 6 5 13 6 8 9 16 7 18 -2 2 9 5 25 6 16 1 29 0
29 -2z m70 1 c0 -2 -7 -7 -16 -10 -8 -3 -12 -2 -9 4 6 10 25 14 25 6z m1083
-3 c-7 -2 -21 -2 -30 0 -10 3 -4 5 12 5 17 0 24 -2 18 -5z m725 -9 c2 -1 -5
-7 -16 -13 -12 -7 -40 -8 -69 -4 l-48 7 40 12 c34 10 80 9 93 -2z m177 6 c-3
-5 -24 -10 -45 -10 -21 0 -42 5 -45 10 -4 6 13 10 45 10 32 0 49 -4 45 -10z
m-2722 -7 c-13 -2 -33 -2 -45 0 -13 2 -3 4 22 4 25 0 35 -2 23 -4z m1752 -3
c-28 -12 -85 -12 -85 0 0 6 24 10 53 9 38 0 47 -3 32 -9z m-1845 -10 c10 -7
-7 -8 -55 -4 -38 4 -72 8 -74 10 -10 9 116 3 129 -6z m345 1 c35 -8 31 -9 -35
-9 -41 0 -95 3 -120 7 -40 8 -37 9 35 9 44 1 98 -3 120 -7z m1705 -1 c11 -7
-5 -10 -52 -10 -37 0 -70 5 -73 10 -8 13 105 13 125 0z m340 1 c0 -14 -67 -23
-116 -15 -31 4 -42 9 -33 15 18 12 149 11 149 0z m-1305 -11 c3 -6 -4 -10 -17
-10 -18 0 -20 2 -8 10 19 12 18 12 25 0z m508 3 c-7 -2 -21 -2 -30 0 -10 3 -4
5 12 5 17 0 24 -2 18 -5z m-1020 -10 c-7 -2 -19 -2 -25 0 -7 3 -2 5 12 5 14 0
19 -2 13 -5z m1302 -2 l40 -9 -35 0 c-19 0 -46 4 -60 8 -20 6 -21 8 -5 8 11 1
38 -3 60 -7z m278 2 c-7 -2 -19 -2 -25 0 -7 3 -2 5 12 5 14 0 19 -2 13 -5z
m337 -3 c-14 -4 -47 -8 -75 -8 -39 0 -45 2 -25 8 14 4 48 8 75 8 39 0 45 -2
25 -8z m253 3 c-13 -2 -33 -2 -45 0 -13 2 -3 4 22 4 25 0 35 -2 23 -4z m-1350
-10 c-7 -2 -19 -2 -25 0 -7 3 -2 5 12 5 14 0 19 -2 13 -5z m72 -3 c3 -6 -5
-10 -19 -10 -14 0 -28 5 -31 10 -3 6 5 10 19 10 14 0 28 -4 31 -10z m158 3
c-7 -2 -19 -2 -25 0 -7 3 -2 5 12 5 14 0 19 -2 13 -5z m1234 1 c-3 -3 -12 -4
-19 -1 -8 3 -5 6 6 6 11 1 17 -2 13 -5z m-3117 -14 c20 -6 21 -8 5 -8 -11 0
-29 3 -40 8 -25 11 1 11 35 0z m313 3 c-13 -2 -35 -2 -50 0 -16 2 -5 4 22 4
28 0 40 -2 28 -4z m307 -2 c0 -5 -21 -6 -47 -4 -71 7 -75 11 -10 12 31 1 57
-3 57 -8z m1443 2 c-7 -2 -19 -2 -25 0 -7 3 -2 5 12 5 14 0 19 -2 13 -5z m397
-2 c23 -7 21 -8 -15 -14 -82 -14 -212 -4 -183 14 16 10 162 10 198 0z m347 3
c-3 -3 -12 -4 -19 -1 -8 3 -5 6 6 6 11 1 17 -2 13 -5z m-2394 -11 c-7 -2 -21
-2 -30 0 -10 3 -4 5 12 5 17 0 24 -2 18 -5z m254 1 c-3 -3 -12 -4 -19 -1 -8 3
-5 6 6 6 11 1 17 -2 13 -5z m-884 -11 c-7 -2 -21 -2 -30 0 -10 3 -4 5 12 5 17
0 24 -2 18 -5z m1000 0 c-7 -2 -19 -2 -25 0 -7 3 -2 5 12 5 14 0 19 -2 13 -5z
m504 -13 c-14 -11 -36 -20 -49 -20 l-23 1 24 19 c13 11 35 20 48 20 l26 0 -26
-20z m138 0 l30 -20 -26 0 c-15 0 -37 9 -50 20 -23 18 -23 19 -4 20 11 0 34
-9 50 -20z m-1547 3 c-16 -2 -40 -2 -55 0 -16 2 -3 4 27 4 30 0 43 -2 28 -4z
m545 0 c-13 -2 -33 -2 -45 0 -13 2 -3 4 22 4 25 0 35 -2 23 -4z m2174 1 c-3
-3 -12 -4 -19 -1 -8 3 -5 6 6 6 11 1 17 -2 13 -5z m86 -1 c-13 -2 -35 -2 -50
0 -16 2 -5 4 22 4 28 0 40 -2 28 -4z m-110 -20 c-13 -2 -33 -2 -45 0 -13 2 -3
4 22 4 25 0 35 -2 23 -4z m-863 -28 c11 -13 8 -15 -13 -15 -26 0 -42 12 -30
24 11 11 30 7 43 -9z m35 -3 c-3 -3 -11 0 -18 7 -9 10 -8 11 6 5 10 -3 15 -9
12 -12z m58 7 c-8 -8 -16 -8 -30 0 -16 9 -14 10 12 11 21 0 26 -3 18 -11z
m420 4 c-7 -2 -21 -2 -30 0 -10 3 -4 5 12 5 17 0 24 -2 18 -5z m87 -3 c-8 -5
-26 -9 -40 -9 l-25 1 25 8 c14 4 32 8 40 9 13 1 13 0 0 -9z m-1653 -6 c-3 -3
-12 -4 -19 -1 -8 3 -5 6 6 6 11 1 17 -2 13 -5z m1270 0 c-3 -3 -12 -4 -19 -1
-8 3 -5 6 6 6 11 1 17 -2 13 -5z m-1184 -11 c-7 -2 -19 -2 -25 0 -7 3 -2 5 12
5 14 0 19 -2 13 -5z m770 -20 c-7 -2 -19 -2 -25 0 -7 3 -2 5 12 5 14 0 19 -2
13 -5z m680 0 c-7 -2 -21 -2 -30 0 -10 3 -4 5 12 5 17 0 24 -2 18 -5z m770
-10 c-7 -2 -19 -2 -25 0 -7 3 -2 5 12 5 14 0 19 -2 13 -5z m-3336 -19 c-3 -3
-12 -4 -19 -1 -8 3 -5 6 6 6 11 1 17 -2 13 -5z m626 -11 c-7 -2 -19 -2 -25 0
-7 3 -2 5 12 5 14 0 19 -2 13 -5z m2510 -20 c-7 -2 -21 -2 -30 0 -10 3 -4 5
12 5 17 0 24 -2 18 -5z m-460 -10 c-7 -2 -21 -2 -30 0 -10 3 -4 5 12 5 17 0
24 -2 18 -5z m-358 -13 c7 -12 -22 -12 -50 0 -17 7 -15 9 12 9 17 1 35 -3 38
-9z m928 -17 c-7 -2 -21 -2 -30 0 -10 3 -4 5 12 5 17 0 24 -2 18 -5z m-2690
-10 c-7 -2 -19 -2 -25 0 -7 3 -2 5 12 5 14 0 19 -2 13 -5z m104 1 c-3 -3 -12
-4 -19 -1 -8 3 -5 6 6 6 11 1 17 -2 13 -5z m1876 -11 c-7 -2 -19 -2 -25 0 -7
3 -2 5 12 5 14 0 19 -2 13 -5z m-2273 -14 c11 -7 4 -8 -25 -3 -50 8 -58 14
-19 14 16 0 36 -5 44 -11z m73 4 c-7 -2 -19 -2 -25 0 -7 3 -2 5 12 5 14 0 19
-2 13 -5z m87 -13 c11 -7 5 -10 -22 -10 -21 0 -38 5 -38 10 0 13 40 13 60 0z
m-450 -10 c11 -7 3 -10 -30 -9 -34 0 -40 2 -25 9 27 12 37 12 55 0z m727 4
c-3 -3 -12 -4 -19 -1 -8 3 -5 6 6 6 11 1 17 -2 13 -5z m2821 -11 c-10 -2 -26
-2 -35 0 -10 3 -2 5 17 5 19 0 27 -2 18 -5z m-453 -13 c8 -13 -72 -33 -91 -22
-15 8 -15 10 1 16 9 3 22 3 27 -1 6 -3 8 -2 5 4 -4 6 6 10 23 11 16 0 32 -3
35 -8z m-2535 -10 c12 -8 12 -10 -5 -9 -11 0 -29 4 -40 9 -18 8 -18 9 5 9 14
0 32 -4 40 -9z m87 4 c-3 -3 -12 -4 -19 -1 -8 3 -5 6 6 6 11 1 17 -2 13 -5z
m2493 -24 c-8 -5 -28 -9 -45 -9 l-30 1 30 8 c17 4 37 8 45 9 13 1 13 0 0 -9z
m223 -17 c-7 -2 -19 -2 -25 0 -7 3 -2 5 12 5 14 0 19 -2 13 -5z m-870 -10 c-7
-2 -19 -2 -25 0 -7 3 -2 5 12 5 14 0 19 -2 13 -5z m-2305 -22 c11 -6 23 -7 27
-3 5 4 5 1 1 -6 -8 -13 -82 -11 -181 5 -37 6 -38 7 -15 14 32 10 143 3 168
-10z m137 9 c8 -13 -45 -13 -65 0 -11 7 -6 10 22 10 20 0 40 -4 43 -10z m2982
4 c-3 -3 -12 -4 -19 -1 -8 3 -5 6 6 6 11 1 17 -2 13 -5z m56 -1 c-7 -2 -21 -2
-30 0 -10 3 -4 5 12 5 17 0 24 -2 18 -5z m155 0 c-10 -2 -26 -2 -35 0 -10 3
-2 5 17 5 19 0 27 -2 18 -5z m-3088 -22 c0 -5 -7 -11 -15 -15 -8 -3 -15 -2
-15 3 0 4 -12 7 -27 4 -24 -3 -25 -2 -8 6 26 12 65 14 65 2z m2327 -7 c-3 -3
-12 -4 -19 -1 -8 3 -5 6 6 6 11 1 17 -2 13 -5z m350 0 c-3 -3 -12 -4 -19 -1
-8 3 -5 6 6 6 11 1 17 -2 13 -5z m-2767 -14 c23 -7 22 -8 -10 -8 -19 0 -44 3
-55 8 -17 7 -15 9 10 8 17 0 41 -4 55 -8z m179 3 c22 -6 23 -7 6 -13 -23 -8
-65 -1 -65 11 0 11 25 11 59 2z m2428 -9 c-3 -3 -12 -4 -19 -1 -8 3 -5 6 6 6
11 1 17 -2 13 -5z m106 -1 c-7 -2 -19 -2 -25 0 -7 3 -2 5 12 5 14 0 19 -2 13
-5z m481 -2 c7 -10 -88 -20 -133 -14 -23 4 -29 8 -20 14 18 11 146 12 153 0z
m-3241 -10 c18 -1 26 -5 21 -12 -3 -6 -18 -8 -33 -5 -14 4 -44 9 -66 12 -58 8
-58 17 0 11 28 -3 63 -6 78 -6z m336 -7 c11 -10 -10 -14 -47 -8 -23 4 -39 11
-36 16 6 9 73 2 83 -8z m-154 -19 c100 -10 141 -17 152 -27 7 -6 13 -7 13 -3
0 5 8 1 19 -9 11 -10 25 -14 36 -10 13 5 16 4 11 -4 -9 -16 7 -15 22 0 9 9 12
9 12 0 0 -6 -11 -15 -26 -18 -18 -5 -31 0 -48 16 -16 14 -26 18 -31 10 -5 -8
-10 -8 -20 0 -9 8 -15 8 -20 0 -3 -6 -11 -8 -16 -4 -5 3 -6 10 -3 16 4 7 0 7
-12 1 -26 -13 -133 5 -113 19 10 7 4 8 -18 4 -43 -7 -100 4 -81 16 7 4 29 6
48 3 19 -3 53 -8 75 -10z m1115 5 c0 -5 -7 -10 -16 -10 -8 0 -12 5 -9 10 3 6
10 10 16 10 5 0 9 -4 9 -10z m1497 -12 c-17 -11 -67 -10 -67 1 0 6 18 9 40 8
23 -1 34 -4 27 -9z m-1542 -8 c3 -5 2 -10 -4 -10 -5 0 -13 5 -16 10 -3 6 -2
10 4 10 5 0 13 -4 16 -10z m1260 0 c3 -5 -2 -10 -12 -10 -10 0 -29 -3 -42 -7
-17 -4 -22 -3 -17 6 4 6 11 9 16 6 5 -3 11 -1 15 5 8 13 32 13 40 0z m-1110
-10 c-3 -5 -14 -10 -23 -9 -14 0 -13 2 3 9 27 11 27 11 20 0z m96 -7 c13 -16
12 -17 -3 -4 -10 7 -18 15 -18 17 0 8 8 3 21 -13z m209 7 c8 -5 11 -10 5 -10
-5 0 -17 5 -25 10 -8 5 -10 10 -5 10 6 0 17 -5 25 -10z m924 2 c2 -4 -12 -8
-32 -9 -36 -1 -36 -1 -7 7 17 4 31 8 32 9 1 0 4 -3 7 -7z m525 -21 c19 -10 30
-21 24 -24 -12 -8 -93 12 -118 30 -18 12 -16 13 20 13 22 -1 55 -9 74 -19z
m-196 2 c-7 -2 -19 -2 -25 0 -7 3 -2 5 12 5 14 0 19 -2 13 -5z m-1776 -9 c-3
-3 -12 -4 -19 -1 -8 3 -5 6 6 6 11 1 17 -2 13 -5z m390 0 c-3 -3 -12 -4 -19
-1 -8 3 -5 6 6 6 11 1 17 -2 13 -5z m1336 -9 c123 -9 163 -19 244 -63 46 -24
83 -46 81 -47 -2 -2 -50 10 -108 27 -58 16 -131 37 -162 45 -32 9 -58 20 -58
25 0 5 -4 7 -10 3 -13 -8 -61 6 -54 16 3 5 10 7 15 4 5 -4 28 -8 52 -10z m104
9 c-3 -3 -12 -4 -19 -1 -8 3 -5 6 6 6 11 1 17 -2 13 -5z m213 -30 c0 -2 -7 -4
-15 -4 -8 0 -15 4 -15 10 0 5 7 7 15 4 8 -4 15 -8 15 -10z m-2740 -28 c19 -2
42 -4 50 -5 13 -1 13 -3 1 -10 -8 -5 -24 -6 -37 -1 -19 8 -22 6 -17 -7 5 -12
3 -14 -8 -7 -21 13 -41 12 -68 -4 -13 -8 -20 -9 -17 -3 4 6 -5 13 -21 17 -48
10 -49 12 -10 13 25 1 37 6 37 15 0 12 6 13 28 5 15 -5 43 -11 62 -13z m43 17
c-7 -2 -19 -2 -25 0 -7 3 -2 5 12 5 14 0 19 -2 13 -5z m1894 1 c-3 -3 -12 -4
-19 -1 -8 3 -5 6 6 6 11 1 17 -2 13 -5z m-1800 -20 c-3 -3 -12 -4 -19 -1 -8 3
-5 6 6 6 11 1 17 -2 13 -5z m960 0 c-3 -3 -12 -4 -19 -1 -8 3 -5 6 6 6 11 1
17 -2 13 -5z m-340 -10 c-3 -3 -12 -4 -19 -1 -8 3 -5 6 6 6 11 1 17 -2 13 -5z
m70 -10 c-3 -3 -12 -4 -19 -1 -8 3 -5 6 6 6 11 1 17 -2 13 -5z m796 -1 c-7 -2
-21 -2 -30 0 -10 3 -4 5 12 5 17 0 24 -2 18 -5z m238 -4 c-14 -5 -28 -6 -33
-1 -4 4 7 9 25 9 30 2 31 2 8 -8z m-1836 -9 c3 -5 1 -10 -4 -10 -6 0 -11 5
-11 10 0 6 2 10 4 10 3 0 8 -4 11 -10z m200 -10 c17 -7 17 -9 3 -9 -37 -2 -16
-20 30 -26 72 -10 74 -14 5 -12 -34 1 -59 5 -57 8 5 8 -32 19 -68 19 -16 0
-28 4 -28 9 0 8 16 12 85 19 6 0 19 -3 30 -8z m1502 4 c-3 -3 -12 -4 -19 -1
-8 3 -5 6 6 6 11 1 17 -2 13 -5z m-112 -34 c-3 -5 -12 -10 -18 -10 -7 0 -6 4
3 10 19 12 23 12 15 0z m-154 -17 c13 -15 12 -15 -7 -5 -12 6 -25 8 -29 4 -5
-4 -5 -1 -1 6 10 16 21 15 37 -5z m232 0 c-7 -2 -19 -2 -25 0 -7 3 -2 5 12 5
14 0 19 -2 13 -5z m87 -6 c12 3 20 0 20 -7 0 -8 -12 -11 -35 -8 -19 2 -35 1
-35 -3 0 -3 -12 -4 -27 -1 -27 6 -27 6 12 17 22 7 41 9 43 5 2 -5 12 -6 22 -3z
m-1083 -3 c-3 -3 -12 -4 -19 -1 -8 3 -5 6 6 6 11 1 17 -2 13 -5z m-307 -20
l25 -8 -30 -6 c-17 -4 -45 -1 -64 7 -18 7 -38 10 -44 6 -5 -3 -7 -1 -4 4 8 12
79 10 117 -3z m145 -10 c29 -13 29 -13 -21 -10 -44 3 -94 19 -94 30 0 8 86 -7
115 -20z m654 -5 c-16 -10 -23 -4 -14 10 3 6 11 8 17 5 6 -4 5 -9 -3 -15z
m314 14 c-7 -2 -19 -2 -25 0 -7 3 -2 5 12 5 14 0 19 -2 13 -5z m-856 -9 c-3
-3 -12 -4 -19 -1 -8 3 -5 6 6 6 11 1 17 -2 13 -5z m318 -7 c42 1 46 0 25 -9
-31 -12 -130 -1 -147 16 -4 4 10 4 32 -1 22 -4 63 -7 90 -6z m385 2 c13 -9 13
-10 0 -8 -8 1 -22 1 -30 0 -13 -1 -13 -2 0 -12 12 -8 10 -9 -10 -5 -14 3 -34
6 -45 6 -16 1 -13 4 10 15 37 17 56 18 75 4z m-1049 -17 c-6 -2 -9 -8 -5 -13
8 -14 -41 -11 -71 5 -27 14 -26 14 30 13 32 -1 52 -3 46 -5z m824 -3 c10 -14
1 -21 -19 -13 -9 3 -13 10 -10 15 7 12 21 11 29 -2z m325 2 c0 -5 -9 -7 -20
-4 -11 3 -20 7 -20 9 0 2 9 4 20 4 11 0 20 -4 20 -9z m-1221 -17 c2 -2 -9 -4
-25 -4 -16 0 -40 -3 -54 -7 -22 -6 -23 -5 -12 10 10 11 23 14 50 10 20 -3 39
-7 41 -9z m361 12 c0 -2 -13 -6 -29 -8 -17 -2 -28 -1 -25 4 5 8 54 12 54 4z
m796 -12 c-9 -8 -21 -12 -28 -8 -8 5 -6 10 8 15 31 12 37 10 20 -7z m-296 -4
c11 -7 6 -10 -20 -10 -26 0 -31 3 -20 10 8 5 17 10 20 10 3 0 12 -5 20 -10z
m-470 -10 c0 -5 -12 -10 -27 -10 -22 0 -25 2 -13 10 20 13 40 13 40 0z m220 1
c0 -4 24 -13 53 -18 50 -9 51 -10 23 -18 -21 -5 -31 -4 -34 3 -2 7 -11 12 -20
12 -9 0 -26 7 -36 15 -17 13 -18 15 -3 15 9 0 17 -4 17 -9z m370 -22 c0 -5
-18 -9 -41 -9 -25 0 -38 -4 -34 -10 4 -6 3 -10 -2 -9 -23 4 -63 -2 -63 -10 0
-4 12 -7 28 -5 20 3 22 2 7 -4 -11 -4 -34 -15 -51 -24 -64 -35 -108 -38 -164
-12 -27 13 -50 28 -50 34 0 5 -6 10 -14 10 -8 0 -17 4 -21 10 -3 5 7 5 25 -1
16 -6 30 -15 30 -21 0 -5 4 -7 9 -4 5 3 24 1 42 -6 29 -10 31 -12 13 -19 -15
-6 -12 -8 14 -8 18 -1 31 3 28 7 -3 5 14 16 37 26 23 9 50 21 59 27 10 5 27 9
38 9 12 0 18 5 15 10 -4 6 8 10 29 10 19 0 38 5 41 10 7 12 25 4 25 -11z
m-520 -3 c31 -13 31 -13 9 -19 -34 -9 -48 -7 -24 3 l20 9 -20 1 c-11 2 -27 2
-35 1 -13 -2 -13 -1 0 8 18 13 12 13 50 -3z m332 -8 c-18 -5 -39 -5 -47 0 -10
5 2 8 33 9 45 1 46 0 14 -9z m471 -5 c-3 -6 -12 -12 -21 -12 -9 0 -48 -3 -87
-6 -65 -6 -68 -5 -51 9 11 9 27 16 35 15 12 0 10 -3 -4 -9 -13 -6 -15 -9 -5
-9 26 -1 62 11 52 18 -6 3 11 6 38 6 32 0 46 -4 43 -12z m-203 -5 c0 -11 -38
-10 -44 1 -3 5 5 8 19 7 14 0 25 -4 25 -8z m-312 -7 c20 -12 -12 -23 -45 -15
-18 5 -21 9 -11 15 17 11 39 11 56 0z m-223 -16 c23 -4 77 -28 122 -55 35 -21
106 -43 98 -30 -6 9 27 19 70 21 21 1 24 3 11 6 -31 8 37 33 88 33 l41 -1 -34
-14 c-18 -8 -42 -15 -52 -15 -11 0 -19 -4 -19 -10 0 -5 -11 -10 -25 -10 -14 0
-28 -7 -31 -15 -5 -11 -23 -15 -71 -15 -35 0 -62 4 -59 9 3 5 -6 12 -22 16
-46 11 -121 48 -116 57 3 4 -6 8 -19 8 -14 0 -28 7 -31 16 -5 12 -2 15 11 9
10 -4 27 -9 38 -10z m491 3 c4 -6 3 -8 -4 -4 -6 3 -13 2 -16 -3 -4 -5 -20 -9
-36 -9 -37 1 -32 8 12 18 18 4 34 8 35 9 1 1 5 -4 9 -11z"/>
<path d="M448 2273 c7 -3 16 -2 19 1 4 3 -2 6 -13 5 -11 0 -14 -3 -6 -6z"/>
<path d="M3155 2240 c3 -5 8 -10 11 -10 2 0 4 5 4 10 0 6 -5 10 -11 10 -5 0
-7 -4 -4 -10z"/>
<path d="M295 2210 c-3 -6 1 -7 9 -4 18 7 21 14 7 14 -6 0 -13 -4 -16 -10z"/>
<path d="M570 2200 c-13 -8 -13 -10 2 -10 9 0 20 5 23 10 8 13 -5 13 -25 0z"/>
<path d="M668 2203 c7 -3 16 -2 19 1 4 3 -2 6 -13 5 -11 0 -14 -3 -6 -6z"/>
<path d="M3060 2206 c0 -2 7 -7 16 -10 8 -3 12 -2 9 4 -6 10 -25 14 -25 6z"/>
<path d="M241 2189 c-13 -5 -21 -12 -18 -15 3 -3 18 1 34 10 31 17 21 20 -16
5z"/>
<path d="M615 2191 c-6 -11 13 -26 22 -17 4 3 1 6 -6 6 -7 0 -9 5 -6 10 3 6 4
10 1 10 -3 0 -7 -4 -11 -9z"/>
<path d="M388 2183 c7 -3 16 -2 19 1 4 3 -2 6 -13 5 -11 0 -14 -3 -6 -6z"/>
<path d="M2943 2177 c0 -7 9 -13 19 -13 10 0 18 1 18 3 0 1 -8 7 -18 12 -13 7
-19 6 -19 -2z"/>
<path d="M348 2173 c7 -3 16 -2 19 1 4 3 -2 6 -13 5 -11 0 -14 -3 -6 -6z"/>
<path d="M278 2163 c6 -2 18 -2 25 0 6 3 1 5 -13 5 -14 0 -19 -2 -12 -5z"/>
<path d="M670 2160 c20 -13 33 -13 25 0 -3 6 -14 10 -23 10 -15 0 -15 -2 -2
-10z"/>
<path d="M3026 2155 c4 -8 10 -12 15 -9 11 6 2 24 -11 24 -5 0 -7 -7 -4 -15z"/>
<path d="M2881 2143 c-34 -17 -28 -32 6 -16 10 4 42 8 71 8 28 0 52 3 52 7 0
5 -8 9 -17 9 -10 1 -31 3 -48 5 -16 2 -45 -4 -64 -13z"/>
<path d="M208 2143 c7 -3 16 -2 19 1 4 3 -2 6 -13 5 -11 0 -14 -3 -6 -6z"/>
<path d="M410 2135 c11 -13 7 -15 -26 -16 -34 -1 -36 -2 -14 -9 14 -4 19 -8
11 -9 -8 -1 -12 -4 -9 -7 4 -3 23 4 45 15 22 12 31 20 21 21 -10 0 -18 5 -18
10 0 6 -5 10 -11 10 -8 0 -8 -5 1 -15z"/>
<path d="M2838 2143 c7 -3 16 -2 19 1 4 3 -2 6 -13 5 -11 0 -14 -3 -6 -6z"/>
<path d="M2927 2114 c-3 -4 -25 -7 -47 -8 -23 -1 -45 -7 -48 -13 -4 -6 -25
-15 -47 -19 -22 -4 -50 -13 -62 -21 -17 -11 -26 -12 -40 -3 -16 10 -16 11 0 6
20 -6 47 2 47 15 0 14 -21 10 -65 -11 -22 -11 -30 -17 -19 -15 13 3 28 -1 37
-10 10 -10 18 -11 22 -5 4 6 16 8 27 4 14 -4 18 -2 14 5 -10 15 7 14 23 -1 11
-10 13 -10 7 0 -5 8 1 12 19 12 15 0 24 4 20 10 -3 6 1 11 9 11 24 2 29 4 52
17 12 6 24 9 26 6 3 -2 18 2 34 11 16 8 22 15 13 15 -9 0 -18 -3 -22 -6z"/>
<path d="M3002 2098 c-39 -24 -32 -37 24 -43 30 -4 33 -3 14 4 -24 8 -23 8 12
16 21 4 35 11 32 16 -3 5 5 10 18 10 16 1 18 3 6 6 -9 2 -38 -5 -63 -17 -26
-12 -50 -19 -53 -15 -3 3 4 8 16 12 12 3 22 9 22 13 0 5 10 11 23 13 19 4 19
4 2 5 -11 1 -35 -8 -53 -20z"/>
<path d="M3560 2116 c0 -2 7 -7 16 -10 8 -3 12 -2 9 4 -6 10 -25 14 -25 6z"/>
<path d="M623 2103 c9 -2 23 -2 30 0 6 3 -1 5 -18 5 -16 0 -22 -2 -12 -5z"/>
<path d="M738 2103 c7 -3 16 -2 19 1 4 3 -2 6 -13 5 -11 0 -14 -3 -6 -6z"/>
<path d="M489 2084 c-17 -20 -6 -26 53 -31 29 -2 59 -8 67 -13 9 -4 -6 -6 -35
-3 -49 6 -49 6 -29 -14 14 -15 26 -18 41 -12 25 9 115 -9 127 -25 6 -7 7 -4 3
7 -4 14 -1 16 19 11 14 -3 25 -2 25 4 0 5 -12 9 -27 9 -39 -1 -85 12 -78 22 6
11 61 7 95 -7 14 -5 29 -8 33 -5 4 3 14 0 21 -6 8 -7 22 -8 35 -3 30 11 93 3
84 -11 -4 -6 0 -8 9 -4 9 3 20 1 25 -4 6 -6 10 -4 10 5 0 8 -3 15 -6 14 -20
-2 -31 3 -26 12 4 6 -1 7 -11 3 -10 -3 -15 -2 -12 3 3 5 -9 10 -28 11 -19 1
-32 -3 -29 -8 4 -5 -1 -9 -9 -9 -21 0 -20 17 1 29 15 8 14 10 -10 16 -15 4
-31 5 -34 1 -4 -3 2 -6 11 -6 22 0 16 -22 -7 -26 -9 -1 -15 2 -11 7 3 5 -4 9
-15 9 -12 0 -21 4 -21 8 0 5 -6 9 -12 10 -7 0 -24 4 -37 8 -17 5 -22 4 -17 -4
4 -7 16 -12 26 -12 10 0 21 -3 23 -7 6 -10 -68 -8 -84 2 -8 5 -10 4 -5 -3 4
-7 3 -12 -3 -12 -5 0 -13 5 -16 10 -3 6 -38 10 -77 10 -81 0 -88 9 -10 11 62
3 60 13 -3 15 -28 1 -49 -4 -56 -12z"/>
<path d="M3518 2093 c7 -3 16 -2 19 1 4 3 -2 6 -13 5 -11 0 -14 -3 -6 -6z"/>
<path d="M628 2083 c7 -3 16 -2 19 1 4 3 -2 6 -13 5 -11 0 -14 -3 -6 -6z"/>
<path d="M870 2081 c0 -12 68 -27 77 -17 4 3 -4 6 -16 6 -12 0 -31 5 -42 10
-12 7 -19 7 -19 1z"/>
<path d="M2930 2083 c-8 -3 -37 -16 -65 -29 -43 -20 -46 -23 -22 -24 15 0 27
5 27 10 0 6 11 10 24 10 14 0 28 5 31 10 3 6 12 10 18 10 7 0 6 -4 -3 -10 -8
-5 -10 -10 -5 -10 14 0 30 13 33 28 2 12 -12 14 -38 5z"/>
<path d="M3095 2075 c-25 -12 -26 -14 -9 -15 12 0 27 7 34 15 15 18 14 18 -25
0z"/>
<path d="M3645 2067 c17 -8 32 -13 34 -11 7 7 -3 12 -34 19 l-30 6 30 -14z"/>
<path d="M3570 2066 c0 -2 7 -7 16 -10 8 -3 12 -2 9 4 -6 10 -25 14 -25 6z"/>
<path d="M285 2050 c3 -5 11 -10 16 -10 6 0 7 5 4 10 -3 6 -11 10 -16 10 -6 0
-7 -4 -4 -10z"/>
<path d="M3610 2050 c0 -6 7 -10 15 -10 8 0 15 2 15 4 0 2 -7 6 -15 10 -8 3
-15 1 -15 -4z"/>
<path d="M2960 2039 c-14 -4 -45 -15 -70 -24 l-45 -15 45 4 c42 3 120 30 120
41 0 7 -20 4 -50 -6z"/>
<path d="M248 2033 c7 -3 16 -2 19 1 4 3 -2 6 -13 5 -11 0 -14 -3 -6 -6z"/>
<path d="M2560 2018 c0 -5 10 -6 21 -3 13 5 19 3 15 -3 -4 -6 8 -10 30 -9 20
1 31 3 24 5 -8 3 -8 7 -2 11 5 3 -12 7 -39 8 -27 0 -49 -3 -49 -9z"/>
<path d="M2995 2020 c-13 -5 -14 -9 -5 -9 8 0 24 4 35 9 13 5 14 9 5 9 -8 0
-24 -4 -35 -9z"/>
<path d="M3338 2023 c7 -3 16 -2 19 1 4 3 -2 6 -13 5 -11 0 -14 -3 -6 -6z"/>
<path d="M155 2010 c3 -5 16 -10 28 -9 21 0 21 1 2 9 -28 12 -37 12 -30 0z"/>
<path d="M786 2011 c-4 -6 -2 -11 4 -11 6 0 9 -4 5 -9 -7 -12 75 -25 107 -17
12 3 17 3 10 0 -6 -3 -9 -10 -6 -15 4 -7 -9 -8 -33 -5 -22 3 -29 3 -15 -2 13
-4 22 -11 20 -17 -2 -5 19 -11 47 -13 27 -2 46 0 42 4 -4 5 -27 8 -50 7 -33
-1 -35 0 -9 4 19 2 30 9 26 15 -4 6 1 6 14 -1 29 -16 63 -14 56 2 -4 10 3 12
27 9 22 -3 27 -7 18 -13 -8 -5 -9 -9 -4 -9 6 0 35 -3 65 -6 40 -4 51 -2 40 5
-8 6 -30 11 -47 11 -18 0 -33 5 -33 10 0 6 -7 10 -16 10 -9 0 -12 5 -8 13 5 9
4 9 -6 0 -8 -8 -20 -9 -36 -3 -13 5 -30 7 -38 4 -8 -3 -28 2 -45 11 -21 10
-46 14 -73 11 -25 -3 -45 -1 -49 5 -5 8 -8 8 -13 0z"/>
<path d="M2785 2010 c-4 -6 1 -7 11 -3 12 4 15 3 10 -5 -4 -7 -24 -13 -44 -13
-33 -2 -34 -2 -8 -6 35 -6 83 16 64 29 -17 10 -26 10 -33 -2z"/>
<path d="M388 2003 c6 -2 18 -2 25 0 6 3 1 5 -13 5 -14 0 -19 -2 -12 -5z"/>
<path d="M590 2000 c-12 -8 -11 -10 6 -10 12 0 37 -3 55 -6 23 -4 29 -2 19 4
-26 16 -64 22 -80 12z"/>
<path d="M448 1993 c7 -3 16 -2 19 1 4 3 -2 6 -13 5 -11 0 -14 -3 -6 -6z"/>
<path d="M1108 1988 c6 -6 18 -8 28 -6 14 3 12 5 -9 10 -19 3 -25 2 -19 -4z"/>
<path d="M2630 1986 c0 -8 51 -13 56 -5 3 5 -9 9 -25 9 -17 0 -31 -2 -31 -4z"/>
<path d="M3229 1979 c-10 -6 -7 -9 14 -9 29 0 35 5 14 13 -8 3 -20 1 -28 -4z"/>
<path d="M355 1970 c-27 -7 -27 -8 -5 -8 14 0 36 4 50 8 20 6 21 8 5 8 -11 0
-33 -4 -50 -8z"/>
<path d="M2525 1970 c-13 -6 -15 -9 -5 -9 8 0 22 4 30 9 18 12 2 12 -25 0z"/>
<path d="M108 1963 c7 -3 16 -2 19 1 4 3 -2 6 -13 5 -11 0 -14 -3 -6 -6z"/>
<path d="M488 1963 c7 -3 16 -2 19 1 4 3 -2 6 -13 5 -11 0 -14 -3 -6 -6z"/>
<path d="M700 1960 c14 -4 34 -8 45 -9 16 -1 17 1 5 9 -8 5 -28 9 -45 9 -29
-1 -29 -1 -5 -9z"/>
<path d="M1373 1963 c-13 -2 -23 -9 -23 -14 0 -14 24 -11 46 6 19 15 16 16
-23 8z"/>
<path d="M2438 1963 c7 -3 16 -2 19 1 4 3 -2 6 -13 5 -11 0 -14 -3 -6 -6z"/>
<path d="M2710 1960 c-21 -7 -21 -8 -5 -9 11 0 27 4 35 9 18 11 5 11 -30 0z"/>
<path d="M2804 1958 c-5 -8 85 -2 94 7 3 3 -16 4 -42 3 -26 -2 -50 -6 -52 -10z"/>
<path d="M1433 1953 c9 -2 25 -2 35 0 9 3 1 5 -18 5 -19 0 -27 -2 -17 -5z"/>
<path d="M3040 1944 c-33 -13 -33 -14 -5 -8 17 3 34 10 40 15 11 11 8 11 -35
-7z"/>
<path d="M3118 1947 c-7 -7 -24 -18 -38 -24 -19 -9 -21 -12 -7 -12 10 -1 28 5
40 13 12 8 34 13 50 11 15 -2 27 1 27 7 0 5 -9 6 -20 3 -11 -4 -20 -2 -20 4 0
15 -16 14 -32 -2z"/>
<path d="M88 1943 c7 -3 16 -2 19 1 4 3 -2 6 -13 5 -11 0 -14 -3 -6 -6z"/>
<path d="M300 1946 c0 -2 9 -6 20 -9 11 -3 20 -1 20 4 0 5 -9 9 -20 9 -11 0
-20 -2 -20 -4z"/>
<path d="M355 1940 c-3 -5 -1 -10 4 -10 6 0 11 5 11 10 0 6 -2 10 -4 10 -3 0
-8 -4 -11 -10z"/>
<path d="M785 1940 c27 -12 43 -12 25 0 -8 5 -22 9 -30 9 -10 0 -8 -3 5 -9z"/>
<path d="M2194 1943 c14 -4 15 -7 6 -13 -7 -5 -2 -7 14 -7 21 0 24 2 15 13 -6
8 -21 13 -33 13 -19 -1 -19 -2 -2 -6z"/>
<path d="M2248 1938 c5 -5 16 -8 23 -6 8 3 3 7 -10 11 -17 4 -21 3 -13 -5z"/>
<path d="M3445 1940 c3 -5 13 -10 21 -10 8 0 12 5 9 10 -3 6 -13 10 -21 10 -8
0 -12 -4 -9 -10z"/>
<path d="M3598 1943 c7 -3 16 -2 19 1 4 3 -2 6 -13 5 -11 0 -14 -3 -6 -6z"/>
<path d="M3630 1939 c0 -5 9 -9 20 -9 11 0 20 2 20 4 0 2 -9 6 -20 9 -11 3
-20 1 -20 -4z"/>
<path d="M410 1930 c8 -5 26 -10 39 -10 32 0 24 6 -19 14 -25 4 -31 3 -20 -4z"/>
<path d="M708 1933 c7 -3 16 -2 19 1 4 3 -2 6 -13 5 -11 0 -14 -3 -6 -6z"/>
<path d="M1475 1930 c-3 -5 -1 -10 4 -10 6 0 11 5 11 10 0 6 -2 10 -4 10 -3 0
-8 -4 -11 -10z"/>
<path d="M2333 1933 c9 -2 23 -2 30 0 6 3 -1 5 -18 5 -16 0 -22 -2 -12 -5z"/>
<path d="M3555 1930 c3 -5 11 -10 16 -10 6 0 7 5 4 10 -3 6 -11 10 -16 10 -6
0 -7 -4 -4 -10z"/>
<path d="M33 1923 c9 -2 25 -2 35 0 9 3 1 5 -18 5 -19 0 -27 -2 -17 -5z"/>
<path d="M1023 1923 c9 -2 23 -2 30 0 6 3 -1 5 -18 5 -16 0 -22 -2 -12 -5z"/>
<path d="M2118 1919 c-8 -6 1 -9 25 -9 20 0 37 2 37 4 0 9 -50 12 -62 5z"/>
<path d="M2413 1922 c45 -6 30 -22 -18 -18 -37 3 -42 1 -29 -9 10 -7 14 -17 9
-24 -5 -9 -2 -10 11 -3 52 27 74 34 86 29 8 -3 36 1 64 8 27 8 42 14 34 15
-35 4 -182 6 -157 2z m97 -12 c-8 -5 -19 -10 -25 -10 -5 0 -3 5 5 10 8 5 20
10 25 10 6 0 3 -5 -5 -10z"/>
<path d="M2835 1920 l-20 -9 20 0 c11 0 27 4 35 9 13 9 13 10 0 9 -8 0 -24 -4
-35 -9z"/>
<path d="M3380 1923 c-34 -6 -49 -22 -21 -22 11 -1 30 -1 41 -2 11 0 20 -4 20
-8 0 -5 18 -8 40 -8 22 0 37 4 34 8 -3 5 0 9 7 9 7 0 10 2 8 5 -3 2 -19 1 -35
-4 -36 -10 -55 -4 -47 15 5 14 -1 15 -47 7z m40 -7 c0 -2 -7 -7 -16 -10 -8 -3
-12 -2 -9 4 6 10 25 14 25 6z"/>
<path d="M3508 1923 c7 -3 16 -2 19 1 4 3 -2 6 -13 5 -11 0 -14 -3 -6 -6z"/>
<path d="M210 1909 c0 -5 5 -7 10 -4 6 3 10 8 10 11 0 2 -4 4 -10 4 -5 0 -10
-5 -10 -11z"/>
<path d="M2633 1913 c9 -2 15 -8 12 -13 -3 -4 5 -6 17 -2 21 5 21 6 2 13 -10
4 -26 7 -34 7 -10 0 -9 -2 3 -5z"/>
<path d="M2973 1913 c-17 -2 -37 -11 -43 -19 -7 -8 -21 -14 -31 -14 -10 0 -21
-4 -24 -10 -3 -5 0 -8 7 -6 7 3 26 7 41 10 17 4 25 11 21 18 -5 7 -2 9 7 6 8
-3 28 0 44 7 31 14 30 14 -22 8z"/>
<path d="M3280 1910 c-22 -7 -20 -8 12 -7 20 0 34 5 32 9 -6 9 -10 9 -44 -2z"/>
<path d="M245 1900 c-16 -7 -17 -9 -3 -9 9 -1 20 4 23 9 7 11 7 11 -20 0z"/>
<path d="M280 1901 c0 -5 12 -11 27 -14 26 -5 26 -4 8 9 -22 16 -35 18 -35 5z"/>
<path d="M608 1903 c6 -2 18 -2 25 0 6 3 1 5 -13 5 -14 0 -19 -2 -12 -5z"/>
<path d="M773 1903 c9 -2 25 -2 35 0 9 3 1 5 -18 5 -19 0 -27 -2 -17 -5z"/>
<path d="M1065 1900 c-19 -8 -19 -9 3 -9 12 -1 22 4 22 9 0 6 -1 10 -2 9 -2 0
-12 -4 -23 -9z"/>
<path d="M1458 1903 c6 -2 18 -2 25 0 6 3 1 5 -13 5 -14 0 -19 -2 -12 -5z"/>
<path d="M3588 1898 c6 -6 18 -8 28 -6 14 3 12 5 -9 10 -19 3 -25 2 -19 -4z"/>
<path d="M554 1884 c11 -8 28 -11 38 -8 11 3 26 0 34 -7 12 -10 13 -9 8 5 -3
9 -14 16 -23 17 -9 0 -29 2 -46 4 -28 4 -29 3 -11 -11z"/>
<path d="M1100 1889 c0 -5 5 -7 10 -4 6 3 10 8 10 11 0 2 -4 4 -10 4 -5 0 -10
-5 -10 -11z"/>
<path d="M1228 1893 c7 -3 16 -2 19 1 4 3 -2 6 -13 5 -11 0 -14 -3 -6 -6z"/>
<path d="M1279 1887 c4 -4 18 -3 32 2 23 9 22 9 -8 8 -18 -1 -28 -6 -24 -10z"/>
<path d="M1547 1890 c-32 -4 -61 -10 -64 -14 -10 -9 109 5 127 15 17 9 18 9
-63 -1z"/>
<path d="M3038 1893 c7 -3 16 -2 19 1 4 3 -2 6 -13 5 -11 0 -14 -3 -6 -6z"/>
<path d="M198 1883 c7 -3 16 -2 19 1 4 3 -2 6 -13 5 -11 0 -14 -3 -6 -6z"/>
<path d="M449 1881 c10 -6 -5 -8 -46 -6 -33 1 -65 0 -72 -4 -6 -4 34 -7 89 -7
96 1 108 6 45 20 -21 5 -25 4 -16 -3z"/>
<path d="M1136 1878 c3 -4 -7 -9 -23 -9 -26 -1 -25 -2 7 -9 19 -4 48 -11 64
-15 21 -6 27 -5 22 4 -4 6 -19 11 -34 12 l-27 1 25 7 c24 7 24 8 -7 12 -18 3
-30 2 -27 -3z"/>
<path d="M1403 1883 c9 -2 23 -2 30 0 6 3 -1 5 -18 5 -16 0 -22 -2 -12 -5z"/>
<path d="M2350 1879 c0 -5 5 -7 10 -4 6 3 10 8 10 11 0 2 -4 4 -10 4 -5 0 -10
-5 -10 -11z"/>
<path d="M2540 1880 c-8 -5 -10 -10 -5 -10 6 0 17 5 25 10 8 5 11 10 5 10 -5
0 -17 -5 -25 -10z"/>
<path d="M2748 1883 c7 -3 16 -2 19 1 4 3 -2 6 -13 5 -11 0 -14 -3 -6 -6z"/>
<path d="M3088 1883 c6 -2 18 -2 25 0 6 3 1 5 -13 5 -14 0 -19 -2 -12 -5z"/>
<path d="M3250 1880 c-27 -6 -20 -7 28 -5 35 1 66 5 69 9 8 8 -53 5 -97 -4z"/>
<path d="M3366 1875 c-8 -22 -8 -22 9 -22 8 0 15 3 15 7 0 4 12 5 28 2 15 -2
25 -2 22 1 -3 3 -16 7 -30 9 -14 1 -28 7 -31 11 -3 5 -9 1 -13 -8z"/>
<path d="M265 1870 c-7 -12 -7 -12 23 -15 18 -2 20 0 11 11 -14 17 -25 18 -34
4z"/>
<path d="M1226 1872 c-8 -13 147 -27 167 -15 10 5 -5 8 -41 8 -31 1 -71 4 -88
9 -19 5 -34 4 -38 -2z"/>
<path d="M2598 1873 c7 -3 16 -2 19 1 4 3 -2 6 -13 5 -11 0 -14 -3 -6 -6z"/>
<path d="M2668 1873 c7 -3 16 -2 19 1 4 3 -2 6 -13 5 -11 0 -14 -3 -6 -6z"/>
<path d="M3450 1870 c0 -5 7 -10 16 -10 9 0 12 -5 8 -12 -5 -8 -2 -9 12 -4 38
16 54 18 54 7 0 -6 -3 -10 -7 -10 -29 5 -36 -2 -17 -16 18 -13 17 -14 -11 -6
-16 4 -36 6 -44 3 -8 -2 -11 0 -7 6 6 10 -29 5 -81 -12 -12 -4 -24 -2 -28 4
-3 6 -11 8 -16 5 -5 -4 -9 -2 -9 4 0 6 -17 10 -39 8 -22 -1 -39 -6 -38 -12 1
-5 -6 -9 -16 -8 -10 0 -16 -2 -12 -5 3 -3 -5 -12 -17 -19 -22 -13 -21 -13 12
-9 19 3 45 8 58 12 13 4 22 2 22 -4 0 -7 24 -11 60 -11 36 1 68 -5 77 -13 11
-8 14 -8 10 -1 -5 8 4 13 30 15 22 2 37 8 36 15 -2 8 6 9 30 2 17 -5 41 -9 52
-8 12 0 7 5 -14 10 -40 12 -38 15 18 22 25 3 39 2 32 -3 -11 -6 -9 -10 8 -19
11 -7 21 -8 21 -3 0 5 14 12 32 16 52 10 17 30 -58 32 -64 3 -102 13 -53 15
l24 1 -25 7 c-14 4 -37 3 -52 -1 -17 -6 -34 -6 -47 2 -14 7 -21 7 -21 0z"/>
<path d="M3624 1873 c3 -3 24 -7 47 -9 23 -2 40 -1 37 2 -3 3 -25 7 -48 9 -23
2 -40 1 -36 -2z"/>
<path d="M766 1861 c-3 -5 -25 -7 -49 -5 -36 3 -38 2 -12 -5 29 -8 29 -9 5
-11 -23 -1 -23 -2 -5 -10 12 -5 14 -9 6 -9 -8 -1 -11 -4 -7 -8 4 -5 13 -1 19
8 16 21 58 31 74 17 7 -5 34 -12 60 -14 l48 -3 -40 18 c-55 24 -93 33 -99 22z"/>
<path d="M908 1863 c6 -2 18 -2 25 0 6 3 1 5 -13 5 -14 0 -19 -2 -12 -5z"/>
<path d="M3036 1861 c-4 -5 3 -7 14 -4 23 6 26 13 6 13 -8 0 -17 -4 -20 -9z"/>
<path d="M38 1853 c6 -2 18 -2 25 0 6 3 1 5 -13 5 -14 0 -19 -2 -12 -5z"/>
<path d="M178 1853 c7 -3 16 -2 19 1 4 3 -2 6 -13 5 -11 0 -14 -3 -6 -6z"/>
<path d="M610 1850 c8 -5 20 -10 25 -10 6 0 3 5 -5 10 -8 5 -19 10 -25 10 -5
0 -3 -5 5 -10z"/>
<path d="M2090 1850 c-11 -7 -5 -8 20 -4 43 8 51 14 19 14 -13 0 -31 -5 -39
-10z"/>
<path d="M2410 1853 c-46 -8 -42 -20 7 -20 26 0 40 2 30 4 -9 3 -15 9 -12 14
4 5 5 8 3 8 -2 -1 -14 -4 -28 -6z"/>
<path d="M3205 1853 c-11 -3 -24 -9 -29 -13 -5 -5 -16 -4 -26 2 -13 9 -26 8
-49 -1 -28 -12 -34 -31 -10 -31 6 0 7 5 4 10 -3 6 -2 10 4 10 5 0 13 -5 16
-10 4 -7 12 -7 24 0 10 5 20 7 23 5 7 -8 68 16 68 26 0 5 -1 8 -2 8 -2 -1 -12
-3 -23 -6z m-55 -17 c0 -9 -30 -14 -35 -6 -4 6 3 10 14 10 12 0 21 -2 21 -4z"/>
<path d="M342 1834 c-9 -8 -12 -14 -7 -14 6 -1 32 -3 59 -5 40 -4 46 -2 37 9
-16 19 -69 25 -89 10z"/>
<path d="M479 1840 c-6 -5 -19 -6 -28 -3 -13 5 -13 3 2 -13 13 -14 35 -19 95
-22 42 -2 86 -7 97 -12 11 -4 28 -11 38 -14 9 -3 17 -11 17 -18 0 -9 -3 -10
-8 -2 -4 6 -18 13 -32 16 -14 3 -34 9 -44 13 -15 6 -17 5 -11 -5 6 -9 4 -11
-5 -5 -19 12 -80 15 -80 5 0 -6 3 -9 8 -8 11 2 66 -14 78 -23 6 -5 38 -8 71
-6 51 2 59 5 61 22 1 16 -1 17 -9 5 -8 -13 -11 -13 -22 0 -10 13 -63 33 -188
70 -15 4 -33 4 -40 0z m21 -20 c0 -5 -7 -7 -15 -4 -8 4 -15 8 -15 10 0 2 7 4
15 4 8 0 15 -4 15 -10z m153 -67 c-7 -2 -19 -2 -25 0 -7 3 -2 5 12 5 14 0 19
-2 13 -5z"/>
<path d="M655 1840 c-3 -5 1 -10 10 -10 9 0 13 5 10 10 -3 6 -8 10 -10 10 -2
0 -7 -4 -10 -10z"/>
<path d="M1238 1843 c6 -2 18 -2 25 0 6 3 1 5 -13 5 -14 0 -19 -2 -12 -5z"/>
<path d="M1566 1839 c2 -4 -1 -9 -8 -12 -7 -2 1 -2 17 1 49 7 64 20 23 19 -20
0 -35 -4 -32 -8z"/>
<path d="M2838 1843 c7 -3 16 -2 19 1 4 3 -2 6 -13 5 -11 0 -14 -3 -6 -6z"/>
<path d="M3408 1843 c7 -3 16 -2 19 1 4 3 -2 6 -13 5 -11 0 -14 -3 -6 -6z"/>
<path d="M104 1824 c26 -9 50 -13 53 -10 6 5 -65 26 -87 25 -8 0 7 -7 34 -15z"/>
<path d="M760 1830 c-13 -8 -13 -10 2 -10 9 0 20 5 23 10 8 13 -5 13 -25 0z"/>
<path d="M1003 1833 c9 -2 23 -2 30 0 6 3 -1 5 -18 5 -16 0 -22 -2 -12 -5z"/>
<path d="M2935 1830 c-16 -7 -17 -9 -3 -9 9 -1 20 4 23 9 7 11 7 11 -20 0z"/>
<path d="M3355 1830 c3 -5 12 -7 20 -3 21 7 19 13 -6 13 -11 0 -18 -4 -14 -10z"/>
<path d="M1440 1822 c-24 -4 -24 -5 -5 -13 15 -7 9 -8 -20 -5 -22 1 -32 1 -22
-1 9 -2 17 -9 17 -14 0 -11 -3 -11 -36 1 -24 9 -25 9 -14 -5 14 -17 46 -20 55
-5 8 13 82 13 87 0 4 -11 48 -1 48 11 0 5 -11 9 -24 9 -13 0 -32 3 -41 6 -13
5 -14 8 -3 15 15 10 3 10 -42 1z"/>
<path d="M2205 1821 c-3 -6 19 -9 51 -8 34 1 49 4 37 8 -26 11 -81 11 -88 0z"/>
<path d="M2988 1823 c7 -3 16 -2 19 1 4 3 -2 6 -13 5 -11 0 -14 -3 -6 -6z"/>
<path d="M4 1795 c1 -22 8 -22 139 -16 l62 3 -54 13 c-29 7 -64 11 -77 9 -13
-2 -24 -1 -24 3 0 5 -11 8 -24 8 -17 0 -23 -5 -22 -20z"/>
<path d="M180 1809 c-13 -9 -12 -10 3 -5 9 3 28 1 41 -4 14 -5 36 -5 53 0 28
8 27 8 -7 7 -19 -1 -44 2 -55 6 -11 3 -27 2 -35 -4z"/>
<path d="M1060 1810 c-10 -7 -4 -8 20 -4 26 4 31 3 20 -5 -21 -15 -9 -14 30 3
l33 13 -44 1 c-24 1 -51 -3 -59 -8z"/>
<path d="M1633 1813 c15 -2 37 -2 50 0 12 2 0 4 -28 4 -27 0 -38 -2 -22 -4z"/>
<path d="M1999 1807 c5 -5 19 -7 32 -5 20 3 19 5 -9 9 -20 3 -29 2 -23 -4z"/>
<path d="M2168 1813 c7 -3 16 -2 19 1 4 3 -2 6 -13 5 -11 0 -14 -3 -6 -6z"/>
<path d="M2761 1806 c-23 -13 -22 -13 18 -13 23 0 44 4 48 9 3 6 -3 7 -17 3
-15 -5 -20 -4 -16 4 9 15 -3 13 -33 -3z"/>
<path d="M3153 1807 c-17 -7 -34 -15 -37 -18 -10 -10 28 -3 50 9 12 6 24 8 28
5 3 -3 6 -1 6 5 0 14 -5 14 -47 -1z"/>
<path d="M1178 1803 c6 -2 18 -2 25 0 6 3 1 5 -13 5 -14 0 -19 -2 -12 -5z"/>
<path d="M2498 1799 c29 -11 30 -11 47 -2 9 5 -1 9 -28 9 -33 1 -37 0 -19 -7z"/>
<path d="M2978 1803 c7 -3 16 -2 19 1 4 3 -2 6 -13 5 -11 0 -14 -3 -6 -6z"/>
<path d="M768 1793 c7 -3 16 -2 19 1 4 3 -2 6 -13 5 -11 0 -14 -3 -6 -6z"/>
<path d="M817 1786 c-4 -9 4 -16 25 -20 45 -9 80 -7 73 3 -3 5 5 12 17 14 13
2 7 4 -14 3 -21 0 -34 -5 -30 -11 3 -5 -4 -2 -15 8 -24 21 -49 22 -56 3z"/>
<path d="M2618 1793 c7 -3 16 -2 19 1 4 3 -2 6 -13 5 -11 0 -14 -3 -6 -6z"/>
<path d="M2700 1790 c0 -5 7 -7 15 -4 8 4 15 8 15 10 0 2 -7 4 -15 4 -8 0 -15
-4 -15 -10z"/>
<path d="M3676 1791 c-4 -5 3 -7 14 -4 23 6 26 13 6 13 -8 0 -17 -4 -20 -9z"/>
<path d="M465 1780 c28 -12 37 -12 30 0 -3 6 -16 10 -28 9 -21 0 -21 -1 -2 -9z"/>
<path d="M1265 1780 c-14 -6 -5 -9 35 -9 39 -1 51 2 40 9 -18 12 -48 12 -75 0z"/>
<path d="M208 1774 c-2 -1 -32 -5 -68 -9 -35 -3 -66 -8 -68 -10 -2 -2 46 -4
108 -4 62 0 110 3 107 6 -7 6 -75 22 -79 17z"/>
<path d="M960 1774 c0 -23 72 -45 84 -25 3 4 -5 6 -18 4 -13 -3 -30 2 -39 11
-16 17 -27 20 -27 10z"/>
<path d="M310 1761 c8 -5 26 -12 40 -15 23 -6 24 -6 5 6 -11 7 -29 13 -40 15
-16 2 -17 1 -5 -6z"/>
<path d="M435 1760 c3 -5 14 -10 23 -10 15 0 15 2 2 10 -20 13 -33 13 -25 0z"/>
<path d="M2028 1763 c7 -3 16 -2 19 1 4 3 -2 6 -13 5 -11 0 -14 -3 -6 -6z"/>
<path d="M2152 1759 c-13 -5 -29 -6 -35 -3 -9 5 -9 4 0 -6 13 -14 78 -6 88 10
8 12 -22 12 -53 -1z"/>
<path d="M2640 1755 c-7 -8 -21 -15 -31 -15 -11 0 -19 -4 -19 -10 0 -15 15
-12 41 9 13 10 33 21 44 24 19 4 19 5 -1 6 -12 0 -27 -6 -34 -14z"/>
<path d="M2966 1755 c-15 -11 -16 -15 -5 -17 8 0 19 -2 24 -3 6 -2 16 -3 23
-4 7 0 10 -5 7 -11 -3 -5 6 -12 20 -16 35 -9 23 -20 -37 -35 -42 -10 -49 -14
-33 -20 17 -6 15 -8 -10 -9 -35 -2 -81 -18 -53 -19 9 -1 24 -4 34 -8 13 -5 15
-3 9 7 -5 8 -4 11 3 6 11 -7 62 13 62 25 0 4 15 9 34 11 19 2 32 0 29 -5 -3
-5 5 -6 18 -2 19 5 21 4 9 -4 -8 -6 -29 -8 -46 -5 -22 4 -35 1 -40 -8 -5 -8
-35 -22 -66 -32 -32 -10 -56 -23 -55 -29 1 -7 -5 -12 -13 -11 -9 1 -21 -4 -27
-11 -9 -10 0 -16 39 -29 28 -9 58 -16 67 -15 9 0 -9 9 -39 19 -48 16 -53 26
-11 21 8 -2 10 2 5 11 -4 7 2 5 14 -5 13 -12 28 -16 41 -12 13 4 46 -7 93 -30
78 -39 111 -63 68 -50 -14 5 -32 8 -40 9 -8 1 -17 3 -20 6 -3 3 -23 17 -46 33
-42 29 -63 35 -46 15 6 -7 11 -17 11 -23 1 -5 13 -13 27 -17 28 -7 113 -59
158 -96 16 -12 35 -21 42 -18 8 3 13 0 11 -6 -1 -6 91 -77 205 -157 114 -81
210 -150 214 -154 4 -4 -13 0 -37 8 -190 62 -603 185 -611 183 -6 -2 146 -52
338 -112 191 -59 353 -110 361 -113 7 -3 13 -1 13 3 0 5 -35 32 -78 61 -92 61
-339 235 -367 257 -11 9 68 -36 175 -100 124 -74 208 -131 232 -157 35 -38 37
-39 35 -16 -1 15 -17 39 -39 58 -51 44 -49 61 2 21 l40 -32 0 36 c0 31 -5 38
-42 60 -43 25 -129 106 -113 106 4 0 23 -11 42 -26 18 -14 38 -22 45 -18 6 4
8 3 4 -4 -5 -9 42 -52 58 -52 3 0 6 33 6 73 l0 72 -54 35 c-30 19 -53 36 -51
39 3 2 27 -10 55 -27 l50 -31 0 144 0 145 -38 -3 c-26 -2 -39 1 -39 10 0 6 4
10 8 7 5 -3 18 0 30 7 15 8 19 8 15 0 -4 -6 0 -11 8 -11 9 0 16 7 16 15 0 13
-12 17 -36 14 -4 0 -10 5 -15 12 -7 12 -40 14 -111 5 -38 -4 -53 9 -20 17 9 3
2 5 -17 6 -23 1 -43 -6 -59 -21 -14 -14 -22 -17 -20 -9 2 10 -5 15 -22 15 -14
0 -24 -5 -23 -11 1 -6 -6 -9 -19 -5 -14 3 -19 1 -14 -6 5 -8 -5 -12 -31 -13
-30 0 -34 -2 -18 -9 21 -9 17 -11 -25 -14 -14 -1 -43 -6 -65 -10 -37 -7 -38
-6 -20 7 11 8 46 21 78 28 40 10 52 16 40 21 -13 5 -10 7 12 8 17 1 46 7 65
14 l34 13 -33 6 c-48 10 -72 8 -46 -3 l20 -9 -20 0 c-11 0 -26 3 -33 7 -7 5
-35 6 -62 2 -27 -3 -56 -2 -65 2 -18 11 -58 1 -50 -13 4 -5 18 -9 33 -10 27
-1 26 -1 -7 -15 -18 -8 -31 -17 -28 -20 3 -3 14 -1 25 5 12 6 42 10 69 10 l48
-2 -56 -7 c-31 -4 -62 -11 -69 -15 -15 -9 -73 -15 -65 -7 3 3 -9 12 -27 20
-19 8 -28 16 -20 19 19 7 64 -6 57 -17 -8 -13 1 -13 26 0 31 17 23 32 -13 25
l-33 -7 19 21 c19 21 19 21 -10 21 -17 0 -35 -5 -41 -11 -6 -6 -26 -13 -45
-15 -31 -3 -32 -3 -14 11 11 8 16 15 10 15 -5 0 -18 -7 -28 -15z m304 -15
c-34 -11 -60 -11 -35 0 11 5 29 8 40 8 16 0 15 -2 -5 -8z m220 -39 c0 -7 -27
-15 -80 -25 -3 -1 -11 -5 -19 -10 -9 -6 -12 -5 -7 2 4 7 -6 12 -26 15 -29 3
-27 4 12 7 25 2 50 4 55 5 6 2 20 3 33 4 15 1 21 5 16 13 -4 7 -3 8 4 4 7 -4
12 -11 12 -15z m105 9 c-3 -5 -12 -10 -18 -10 -7 0 -6 4 3 10 19 12 23 12 15
0z m-425 -44 c0 -2 -11 -6 -25 -8 -13 -3 -22 -1 -19 3 5 9 44 13 44 5z m200
-16 c0 -5 -5 -10 -11 -10 -5 0 -7 5 -4 10 3 6 8 10 11 10 2 0 4 -4 4 -10z m86
-2 c-9 -5 -23 -5 -32 0 -12 6 -7 9 16 9 23 0 28 -3 16 -9z m-137 -2 c-2 -2
-17 -6 -34 -10 -22 -5 -26 -4 -15 4 14 9 59 15 49 6z m-199 -16 c0 -5 -12 -10
-27 -9 l-28 1 25 8 c14 4 26 8 28 9 1 1 2 -3 2 -9z m87 4 c-3 -3 -12 -4 -19
-1 -8 3 -5 6 6 6 11 1 17 -2 13 -5z m399 -6 c4 -7 3 -8 -4 -4 -7 4 -12 2 -12
-5 0 -7 -3 -10 -6 -6 -4 3 -21 -4 -38 -17 -17 -13 -41 -27 -53 -31 -13 -3 -23
-10 -23 -15 0 -4 -13 -10 -30 -12 -16 -3 -30 -4 -30 -3 0 1 34 19 75 40 41 20
80 44 86 51 14 17 26 18 35 2z m-225 -19 c22 -18 22 -19 3 -10 -12 6 -24 8
-26 5 -3 -3 -8 2 -11 11 -9 21 6 19 34 -6z m-375 -39 c46 -23 38 -26 -13 -5
-42 18 -46 18 -38 5 3 -5 1 -10 -4 -10 -12 0 -14 13 -4 23 10 10 16 9 59 -13z
m70 -5 c24 -18 7 -19 -26 0 -16 9 -19 14 -9 15 8 0 24 -7 35 -15z m35 -2 c13
-16 12 -17 -3 -4 -10 7 -18 15 -18 17 0 8 8 3 21 -13z m444 -11 c-3 -3 -11 0
-18 7 -9 10 -8 11 6 5 10 -3 15 -9 12 -12z m-375 -2 c13 -9 13 -10 0 -10 -8 0
-22 5 -30 10 -13 9 -13 10 0 10 8 0 22 -5 30 -10z m-67 -22 c-2 -5 0 -8 5 -8
5 0 33 -16 61 -35 53 -37 67 -43 55 -24 -9 15 54 -21 68 -39 9 -10 8 -12 -3
-10 -8 2 -17 6 -20 11 -3 4 -15 9 -27 12 -18 3 -189 89 -201 100 -1 2 13 3 32
2 19 -1 33 -5 30 -9z m170 -26 c20 -10 33 -23 29 -27 -4 -4 4 -4 18 -1 17 5
21 4 11 -2 -10 -7 -5 -16 23 -37 20 -15 33 -31 30 -36 -3 -5 0 -9 7 -9 7 0 10
-3 6 -6 -6 -7 -75 24 -83 38 -4 5 8 2 26 -7 17 -9 34 -14 37 -11 6 6 -99 56
-116 56 -5 0 -14 7 -21 15 -7 9 -20 13 -29 10 -8 -3 -12 -3 -8 1 8 8 -11 34
-25 34 -5 0 -6 -5 -2 -11 4 -8 0 -8 -15 0 -11 7 -21 14 -21 17 0 3 4 2 10 -1
5 -3 18 -2 27 3 18 11 39 5 96 -26z m153 7 c3 -5 -4 -9 -14 -9 -11 0 -22 6
-25 14 -4 10 0 12 14 9 11 -3 22 -9 25 -14z m-52 3 c2 -4 -3 -8 -12 -9 -10 -1
-22 -2 -27 -3 -6 -1 -19 -1 -30 0 -17 2 0 8 57 19 4 0 9 -3 12 -7z m196 -6 c0
-2 -9 -6 -20 -9 -11 -3 -18 -1 -14 4 5 9 34 13 34 5z m-353 -82 c17 -8 34 -14
39 -14 4 0 38 -22 76 -50 72 -52 90 -61 67 -33 -12 14 -9 13 16 -2 76 -48 151
-106 164 -126 7 -12 -25 7 -74 45 -48 37 -89 65 -92 63 -2 -3 23 -26 56 -52
61 -46 83 -72 36 -41 -13 9 -66 41 -117 71 -51 31 -100 60 -108 65 -8 5 -37
22 -65 39 -27 16 -59 36 -70 44 -19 14 -18 15 10 10 17 -3 44 -11 62 -19z
m338 -78 c11 -8 16 -15 10 -15 -5 0 -23 11 -40 25 -31 26 -6 18 30 -10z m-70
-27 l30 -32 -40 22 c-22 12 -51 31 -65 41 l-25 20 35 -10 c19 -6 48 -24 65
-41z m106 -96 c13 -16 12 -17 -3 -4 -17 13 -22 21 -14 21 2 0 10 -8 17 -17z"/>
<path d="M3620 1766 c0 -7 40 -14 44 -7 3 4 -6 8 -20 9 -13 1 -24 0 -24 -2z"/>
<path d="M1528 1753 c6 -2 18 -2 25 0 6 3 1 5 -13 5 -14 0 -19 -2 -12 -5z"/>
<path d="M2318 1753 c7 -3 16 -2 19 1 4 3 -2 6 -13 5 -11 0 -14 -3 -6 -6z"/>
<path d="M2375 1750 c-13 -5 -14 -9 -5 -9 8 0 24 4 35 9 13 5 14 9 5 9 -8 0
-24 -4 -35 -9z"/>
<path d="M2510 1750 l-35 -7 32 -2 c17 0 35 4 38 9 3 6 5 9 3 9 -2 -1 -19 -5
-38 -9z"/>
<path d="M3687 1753 c-22 -6 -17 -27 6 -31 12 -2 17 3 17 17 0 12 -1 20 -2 20
-2 -1 -11 -3 -21 -6z"/>
<path d="M296 1743 c-3 -4 -18 -8 -33 -9 -16 -2 -39 -6 -51 -9 -13 -3 -21 -2
-19 2 3 4 -16 9 -41 9 -36 1 -41 0 -22 -6 21 -7 22 -8 5 -10 l-20 -1 20 -8
c11 -5 27 -6 35 -4 11 3 10 2 -2 -6 -10 -7 -25 -8 -40 -2 -13 5 -47 12 -76 16
l-52 7 0 -67 0 -66 62 -30 c35 -16 52 -27 38 -23 -14 4 -41 15 -62 25 l-36 18
-1 -189 c-1 -176 0 -189 16 -184 17 5 17 5 1 -6 -17 -11 -25 -40 -11 -40 4 0
36 17 72 39 56 33 94 45 256 80 248 54 238 51 233 56 -4 4 -330 -60 -356 -70
-7 -3 -10 0 -7 5 9 14 -1 12 -35 -5 -41 -21 -38 -11 4 14 36 23 51 27 41 11
-11 -18 5 -11 78 33 40 23 79 45 87 50 8 4 38 20 65 37 28 16 72 41 99 56 27
14 56 32 64 40 7 8 20 14 28 14 8 0 14 5 14 11 0 5 5 7 10 4 6 -4 34 -3 63 1
37 5 46 9 32 14 -19 7 -62 5 -125 -5 -29 -4 -27 -2 14 13 l49 18 -59 19 c-32
10 -68 18 -79 17 -100 -6 -173 -7 -185 -1 -46 22 -111 40 -121 33 -7 -4 -44
-8 -83 -10 -60 -2 -65 -1 -31 6 22 5 58 9 80 10 33 0 37 2 22 11 -10 6 -25 8
-33 5 -23 -9 -16 10 9 23 17 9 37 10 76 3 28 -5 54 -6 56 -2 6 10 -30 19 -80
21 -34 1 -36 2 -15 8 14 4 30 7 35 6 61 -11 84 -19 79 -27 -4 -6 -1 -8 7 -6 8
3 31 -1 52 -8 21 -7 35 -9 32 -4 -3 6 -13 10 -21 10 -17 0 -19 16 -1 23 7 3 5
6 -5 6 -10 1 -18 -4 -18 -9 0 -6 -11 -3 -25 6 -14 9 -28 14 -32 10 -4 -3 -16
0 -29 8 -12 8 -24 12 -28 9z m184 -166 c11 -5 9 -6 -4 -4 -11 1 -21 9 -23 17
-3 10 -2 11 4 4 4 -6 15 -14 23 -17z m-255 -17 c-3 -5 -12 -10 -18 -10 -7 0
-6 4 3 10 19 12 23 12 15 0z m130 -8 c-3 -3 -11 0 -18 7 -9 10 -8 11 6 5 10
-3 15 -9 12 -12z m227 0 c-10 -3 -8 -8 5 -19 16 -13 16 -13 -6 -3 -13 7 -37 9
-53 6 -24 -5 -27 -3 -16 8 18 18 39 24 63 18 12 -3 14 -7 7 -10z m-416 -37
c16 -8 49 -16 74 -16 33 -2 37 -3 16 -6 -22 -4 -26 -7 -15 -14 9 -5 10 -9 2
-9 -6 0 -15 5 -18 10 -3 6 -14 10 -23 10 -9 0 -30 9 -47 20 -35 23 -29 26 11
5z m285 -23 c-7 -2 -18 1 -23 6 -8 8 -4 9 13 5 13 -4 18 -8 10 -11z m-40 -87
c-101 -58 -186 -104 -188 -102 -2 2 53 39 122 81 115 71 150 98 109 82 -9 -3
-12 -2 -9 5 4 6 13 8 21 5 8 -3 31 3 52 14 20 11 46 20 57 20 11 0 -63 -47
-164 -105z m-314 89 c-3 -3 -12 -4 -19 -1 -8 3 -5 6 6 6 11 1 17 -2 13 -5z
m283 -9 c7 -8 15 -13 19 -11 3 2 11 -2 18 -9 9 -10 -4 -23 -65 -61 -204 -126
-286 -174 -300 -174 -24 0 116 101 196 141 40 21 69 39 65 41 -4 3 -3 3 4 2
14 -3 97 35 90 42 -3 3 -20 -2 -37 -11 -27 -14 -37 -15 -61 -4 -16 6 -28 14
-25 16 2 3 14 -1 26 -7 17 -9 29 -9 52 1 l31 13 -23 18 c-12 10 -18 18 -12 18
5 0 15 -7 22 -15z m-140 -40 c17 -9 30 -18 30 -20 0 -6 -24 -2 -30 6 -3 3 -14
11 -25 17 -30 17 -8 14 25 -3z m-45 -75 c-3 -5 -16 -15 -28 -21 -21 -10 -21
-9 2 10 25 23 36 27 26 11z"/>
<path d="M768 1743 c12 -2 30 -2 40 0 9 3 -1 5 -23 4 -22 0 -30 -2 -17 -4z"/>
<path d="M2918 1743 c7 -3 16 -2 19 1 4 3 -2 6 -13 5 -11 0 -14 -3 -6 -6z"/>
<path d="M3560 1740 c-9 -6 -10 -10 -3 -10 6 0 15 5 18 10 8 12 4 12 -15 0z"/>
<path d="M2198 1733 c7 -3 16 -2 19 1 4 3 -2 6 -13 5 -11 0 -14 -3 -6 -6z"/>
<path d="M2853 1733 c-13 -2 -23 -9 -23 -14 0 -5 -10 -9 -22 -9 -12 0 -19 -3
-15 -6 8 -8 97 18 97 28 0 4 -3 7 -7 7 -5 -1 -18 -4 -30 -6z"/>
<path d="M2430 1720 l-35 -7 35 -1 c19 0 44 3 55 8 l20 9 -20 -1 c-11 0 -36
-4 -55 -8z"/>
<path d="M2734 1715 c-18 -13 -18 -14 4 -8 12 3 25 9 28 14 8 14 -10 11 -32
-6z"/>
<path d="M777 1713 c-3 -5 15 -9 39 -10 24 -1 44 2 44 7 0 12 -77 14 -83 3z"/>
<path d="M2536 1705 c-25 -19 -9 -19 24 0 14 8 19 14 10 14 -8 0 -24 -6 -34
-14z"/>
<path d="M2898 1713 c-28 -7 -21 -21 7 -15 14 2 22 8 19 13 -3 5 -6 8 -7 8 -1
-1 -10 -3 -19 -6z"/>
<path d="M2965 1710 c-3 -5 -1 -10 4 -10 6 0 11 5 11 10 0 6 -2 10 -4 10 -3 0
-8 -4 -11 -10z"/>
<path d="M940 1700 c0 -5 5 -10 11 -10 5 0 7 5 4 10 -3 6 -8 10 -11 10 -2 0
-4 -4 -4 -10z"/>
<path d="M550 1696 c0 -2 7 -6 15 -10 8 -3 15 -1 15 4 0 6 -7 10 -15 10 -8 0
-15 -2 -15 -4z"/>
<path d="M883 1693 c9 -2 25 -2 35 0 9 3 1 5 -18 5 -19 0 -27 -2 -17 -5z"/>
<path d="M2348 1693 c7 -3 16 -2 19 1 4 3 -2 6 -13 5 -11 0 -14 -3 -6 -6z"/>
<path d="M2448 1693 c6 -2 18 -2 25 0 6 3 1 5 -13 5 -14 0 -19 -2 -12 -5z"/>
<path d="M2830 1690 c-9 -6 -10 -10 -3 -10 6 0 15 5 18 10 8 12 4 12 -15 0z"/>
<path d="M2974 1685 c-18 -13 -18 -14 4 -8 12 3 25 9 28 14 8 14 -10 11 -32
-6z"/>
<path d="M235 1676 c11 -8 27 -16 35 -16 8 0 33 -7 55 -14 39 -14 193 -32 167
-20 -6 3 -10 10 -7 14 6 9 -55 24 -87 22 -10 0 -18 4 -18 9 0 5 -12 9 -27 8
-16 -1 -53 1 -83 5 -51 7 -54 7 -35 -8z"/>
<path d="M691 1681 c-9 -6 -10 -11 -2 -15 6 -4 11 -2 11 4 0 6 4 9 8 6 4 -2
14 -1 22 5 12 7 11 9 -5 9 -11 0 -26 -4 -34 -9z"/>
<path d="M1690 1680 c-21 -5 -3 -6 45 -3 44 3 82 7 84 9 8 7 -93 2 -129 -6z"/>
<path d="M1858 1683 c17 -2 47 -2 65 0 17 2 3 4 -33 4 -36 0 -50 -2 -32 -4z"/>
<path d="M2388 1683 c7 -3 16 -2 19 1 4 3 -2 6 -13 5 -11 0 -14 -3 -6 -6z"/>
<path d="M2590 1680 l-25 -8 25 -1 c14 0 32 4 40 9 13 9 13 10 0 9 -8 -1 -26
-5 -40 -9z"/>
<path d="M2743 1680 c-25 -10 -30 -26 -10 -33 17 -6 109 3 127 13 9 5 -17 7
-60 5 -74 -4 -74 -4 -35 9 22 8 31 14 20 14 -11 1 -30 -3 -42 -8z"/>
<path d="M613 1666 c11 -8 25 -12 33 -9 18 7 16 9 -21 17 -28 6 -29 5 -12 -8z"/>
<path d="M758 1673 c7 -3 16 -2 19 1 4 3 -2 6 -13 5 -11 0 -14 -3 -6 -6z"/>
<path d="M954 1668 c11 -6 26 -7 38 -1 17 7 14 9 -18 10 -31 1 -35 -1 -20 -9z"/>
<path d="M1598 1673 c7 -3 16 -2 19 1 4 3 -2 6 -13 5 -11 0 -14 -3 -6 -6z"/>
<path d="M2640 1670 c-8 -5 -10 -10 -5 -10 6 0 17 5 25 10 8 5 11 10 5 10 -5
0 -17 -5 -25 -10z"/>
<path d="M2915 1670 c-25 -10 -50 -38 -41 -47 3 -3 6 -1 6 5 0 7 5 12 11 12 6
0 22 9 36 20 27 21 22 25 -12 10z"/>
<path d="M720 1660 c-9 -6 -10 -10 -3 -10 6 0 15 5 18 10 8 12 4 12 -15 0z"/>
<path d="M2118 1663 c6 -2 18 -2 25 0 6 3 1 5 -13 5 -14 0 -19 -2 -12 -5z"/>
<path d="M558 1653 c6 -2 18 -2 25 0 6 3 1 5 -13 5 -14 0 -19 -2 -12 -5z"/>
<path d="M795 1645 c17 -8 39 -12 50 -9 16 4 17 3 5 -5 -18 -12 -4 -13 25 -1
19 7 18 8 -5 13 -14 3 -43 8 -65 10 l-40 5 30 -13z"/>
<path d="M1085 1650 c-17 -8 -17 -9 7 -7 15 1 24 5 22 9 -3 4 -6 8 -7 7 -1 0
-11 -4 -22 -9z"/>
<path d="M2273 1653 c9 -2 23 -2 30 0 6 3 -1 5 -18 5 -16 0 -22 -2 -12 -5z"/>
<path d="M2340 1651 c0 -5 5 -13 10 -16 6 -3 10 -2 10 4 0 5 -4 13 -10 16 -5
3 -10 2 -10 -4z"/>
<path d="M1308 1643 c7 -3 16 -2 19 1 4 3 -2 6 -13 5 -11 0 -14 -3 -6 -6z"/>
<path d="M1918 1643 c7 -3 16 -2 19 1 4 3 -2 6 -13 5 -11 0 -14 -3 -6 -6z"/>
<path d="M700 1633 c8 -3 17 -9 20 -13 3 -4 16 -10 30 -14 19 -6 21 -5 10 3
-8 6 -10 11 -5 12 17 1 -29 18 -50 18 -14 -1 -16 -2 -5 -6z"/>
<path d="M1520 1624 c-33 -11 -32 -11 27 -10 34 0 65 4 69 9 4 4 1 8 -7 8 -8
1 -23 2 -34 3 -11 1 -36 -3 -55 -10z"/>
<path d="M2025 1630 c-12 -4 5 -9 50 -13 38 -4 71 -4 74 -2 2 3 -9 5 -25 6
-29 1 -29 1 -4 9 19 6 14 8 -25 8 -27 -1 -59 -4 -70 -8z"/>
<path d="M2158 1633 c6 -2 18 -2 25 0 6 3 1 5 -13 5 -14 0 -19 -2 -12 -5z"/>
<path d="M2228 1633 c6 -2 18 -2 25 0 6 3 1 5 -13 5 -14 0 -19 -2 -12 -5z"/>
<path d="M630 1619 c0 -5 5 -7 10 -4 6 3 10 8 10 11 0 2 -4 4 -10 4 -5 0 -10
-5 -10 -11z"/>
<path d="M800 1620 c20 -13 33 -13 25 0 -3 6 -14 10 -23 10 -15 0 -15 -2 -2
-10z"/>
<path d="M1010 1620 c14 -4 36 -8 50 -8 l25 0 -25 8 c-14 4 -36 8 -50 8 l-25
0 25 -8z"/>
<path d="M2308 1623 c7 -3 16 -2 19 1 4 3 -2 6 -13 5 -11 0 -14 -3 -6 -6z"/>
<path d="M2598 1623 c7 -3 16 -2 19 1 4 3 -2 6 -13 5 -11 0 -14 -3 -6 -6z"/>
<path d="M2757 1615 c3 -8 9 -12 14 -9 12 7 11 11 -5 17 -10 4 -13 1 -9 -8z"/>
<path d="M1368 1613 c7 -3 16 -2 19 1 4 3 -2 6 -13 5 -11 0 -14 -3 -6 -6z"/>
<path d="M2635 1610 c-7 -11 25 -11 70 0 27 7 25 8 -17 9 -26 0 -50 -3 -53 -9z"/>
<path d="M850 1606 c0 -3 9 -10 20 -16 11 -6 20 -8 20 -6 0 3 -9 10 -20 16
-11 6 -20 8 -20 6z"/>
<path d="M893 1604 c4 -4 26 -8 49 -10 31 -3 39 -1 28 6 -16 11 -87 14 -77 4z"/>
<path d="M1158 1603 c7 -3 16 -2 19 1 4 3 -2 6 -13 5 -11 0 -14 -3 -6 -6z"/>
<path d="M2860 1599 c0 -5 5 -7 10 -4 6 3 10 8 10 11 0 2 -4 4 -10 4 -5 0 -10
-5 -10 -11z"/>
<path d="M1018 1593 c7 -3 16 -2 19 1 4 3 -2 6 -13 5 -11 0 -14 -3 -6 -6z"/>
<path d="M1725 1590 c-18 -8 -18 -9 5 -9 14 0 32 4 40 9 12 8 12 10 -5 9 -11
0 -29 -4 -40 -9z"/>
<path d="M1885 1590 c3 -5 10 -10 16 -10 5 0 9 5 9 10 0 6 -7 10 -16 10 -8 0
-12 -4 -9 -10z"/>
<path d="M2438 1593 c6 -2 18 -2 25 0 6 3 1 5 -13 5 -14 0 -19 -2 -12 -5z"/>
<path d="M1168 1583 c7 -3 16 -2 19 1 4 3 -2 6 -13 5 -11 0 -14 -3 -6 -6z"/>
<path d="M2712 1581 c-11 -6 -9 -9 6 -13 26 -7 50 7 27 16 -20 7 -17 8 -33 -3z"/>
<path d="M1678 1573 c7 -3 16 -2 19 1 4 3 -2 6 -13 5 -11 0 -14 -3 -6 -6z"/>
<path d="M1960 1565 c46 -18 64 -17 25 0 -16 8 -37 14 -45 14 -8 0 1 -7 20
-14z"/>
<path d="M953 1563 c15 -2 37 -2 50 0 12 2 0 4 -28 4 -27 0 -38 -2 -22 -4z"/>
<path d="M1613 1563 c9 -2 25 -2 35 0 9 3 1 5 -18 5 -19 0 -27 -2 -17 -5z"/>
<path d="M2794 1563 c10 -11 36 -12 36 -2 0 5 -10 9 -22 9 -12 0 -18 -3 -14
-7z"/>
<path d="M1302 1502 c-91 -18 -87 -29 5 -12 64 12 120 31 83 28 -8 0 -48 -8
-88 -16z"/>
<path d="M2250 1469 c0 -5 5 -7 10 -4 6 3 10 8 10 11 0 2 -4 4 -10 4 -5 0 -10
-5 -10 -11z"/>
<path d="M2295 1460 c11 -5 27 -9 35 -9 9 0 8 4 -5 9 -11 5 -27 9 -35 9 -9 0
-8 -4 5 -9z"/>
<path d="M1086 1452 c-2 -4 11 -6 30 -4 19 2 34 6 34 8 0 8 -59 4 -64 -4z"/>
<path d="M1045 1441 c-3 -5 0 -13 6 -17 7 -4 9 -3 5 4 -3 5 0 13 6 15 9 4 10
6 1 6 -6 1 -14 -3 -18 -8z"/>
<path d="M2370 1442 c8 -5 26 -13 40 -16 17 -5 20 -4 10 2 -8 5 -26 13 -40 16
-17 5 -20 4 -10 -2z"/>
<path d="M950 1426 c0 -9 30 -14 35 -6 4 6 -3 10 -14 10 -12 0 -21 -2 -21 -4z"/>
<path d="M2465 1410 c11 -5 27 -9 35 -9 9 0 8 4 -5 9 -11 5 -27 9 -35 9 -9 0
-8 -4 5 -9z"/>
<path d="M755 1383 c-55 -12 -116 -26 -135 -29 -19 -3 -37 -8 -39 -10 -14 -13
18 -9 139 17 161 35 157 34 145 40 -6 3 -55 -5 -110 -18z"/>
<path d="M888 1403 c6 -2 18 -2 25 0 6 3 1 5 -13 5 -14 0 -19 -2 -12 -5z"/>
<path d="M2538 1383 c7 -3 16 -2 19 1 4 3 -2 6 -13 5 -11 0 -14 -3 -6 -6z"/>
<path d="M2580 1376 c0 -2 60 -22 133 -45 72 -23 160 -51 195 -62 35 -12 65
-19 68 -16 3 3 -52 23 -123 46 -272 86 -273 86 -273 77z"/>
</g>
</svg>
